<svg width="24" height="24" viewBox="0 0 24 24" fill="none" xmlns="http://www.w3.org/2000/svg">
<g id="Frame">
<path id="Vector" opacity="0.5" d="M12 1C5.95 1 1 5.95 1 12C1 18.05 5.95 23 12 23C18.05 23 23 18.05 23 12C23 5.95 18.05 1 12 1Z" fill="white"/>
<path id="Vector_2" d="M3 12C3 7.05 7.05 3 12 3C16.95 3 21 7.05 21 12" stroke="white" stroke-linecap="round" stroke-dasharray="4 4"/>
<path id="Vector_3" d="M11.5098 13.8675C10.5498 13.8675 9.66977 13.3475 9.18977 12.5075C9.18977 12.5075 9.18977 12.4675 9.14977 12.4675L6.06977 6.9075C5.94977 6.6675 5.98977 6.3875 6.14977 6.1875C6.34977 5.9875 6.62977 5.9475 6.86977 6.0675L12.3898 8.8275L12.8698 9.0675H12.9098C13.6698 9.5475 14.1098 10.3875 14.1098 11.2675C14.1098 12.6675 12.9498 13.8675 11.5098 13.8675Z" fill="white"/>
</g>
</svg>
