<svg width="86" height="88" viewBox="0 0 86 88" fill="none" xmlns="http://www.w3.org/2000/svg">
<g id="uuid-e7c7d7f4-8dab-4a27-b679-e8dcd035f945" clip-path="url(#clip0_9920_208)">
<path id="Vector" d="M64.5597 21.3127C69.6302 26.3856 70.1337 26.9576 70.1432 27.6597C70.1455 27.8465 69.8548 27.8606 65.6494 27.8606L62.749 24.7687C62.8033 24.7711 60.9571 22.8445 58.6453 20.4877L54.4399 16.1996H59.4443L64.5597 21.3151V21.3127Z" fill="#81B0FC"/>
<path id="Vector_2" d="M43.7461 11.4317V25.9837L43.3277 25.3667C43.1244 25.0523 42.8408 24.4614 42.6989 24.0524L42.5145 23.5891C42.4247 23.3622 42.3774 23.1187 42.3774 22.8729V0.156006H42.6398C43.4081 0.165461 43.8809 0.576776 49.0507 5.73712L54.1708 10.8478V15.8781L52.7147 14.3913C50.4217 12.0487 43.7461 5.43927 43.7461 5.43927V11.4317Z" fill="#81B0FC"/>
<path id="Vector_3" fill-rule="evenodd" clip-rule="evenodd" d="M70.1459 29.4775C70.1364 30.1772 69.6329 30.7493 64.5624 35.8245L59.447 40.94H54.4427L58.648 36.6519C60.9599 34.2927 62.8037 32.508 62.7493 32.5127C62.695 32.5151 60.8653 33.1983 53.1638 36.1082C45.4599 39.0181 43.7461 39.5335 43.7461 39.5335V45.8686C43.7461 49.1213 43.7461 51.8611 43.7461 51.8611C43.7485 51.8611 50.1475 45.2871 52.4381 42.9445L53.8942 41.4577V46.488L48.7741 51.5987C43.6067 56.7567 43.4081 57.1585 42.6375 57.1656H42.3774V34.3518C42.3774 34.1367 42.4129 33.924 42.4838 33.7207L42.6351 33.2834C42.7746 32.8744 43.0582 32.2835 43.2639 31.9691L43.7509 31.293V33.5174C43.7485 34.7182 43.7461 35.5976 43.7461 35.5976C43.7461 35.5976 47.5141 34.2431 52.3554 32.4844L61.1584 29.2837H65.6522C69.8575 29.2837 70.1482 29.2979 70.1459 29.4846V29.4775Z" fill="#81B0FC"/>
<g id="Group">
<path id="Vector_4" d="M59.4444 16.1949L59.5555 16.0862L59.5082 16.0413H59.4444V16.1949ZM54.4401 16.1949V16.0389H54.0713L54.329 16.3013L54.4401 16.1925V16.1949ZM62.7491 24.764L62.7562 24.6103L62.3732 24.5914L62.6356 24.8727L62.7491 24.7663V24.764ZM43.7459 5.43928L43.8546 5.33054L43.5922 5.06815V5.43928H43.7459ZM54.1682 15.8782L54.0595 15.9869L54.3242 16.2587V15.8782H54.1682ZM54.1706 10.8478H54.3266V10.784L54.2817 10.7391L54.1706 10.8478ZM42.3772 0.15838V0H42.2212V0.156016H42.3772V0.15838ZM42.6987 24.0548L42.8453 24.0052V23.9981L42.7011 24.0548H42.6987ZM43.7459 25.9861L43.6182 26.0735L43.9019 26.492V25.9884H43.7459V25.9861ZM65.6496 27.863L65.5361 27.9694L65.5834 28.019H65.6496V27.8654V27.863ZM59.4468 40.9447V41.0983H59.5129L59.5579 41.0534L59.4468 40.9447ZM54.4424 40.9447L54.3313 40.836L54.0737 41.0983H54.4424V40.9423V40.9447ZM62.7491 32.5175L62.742 32.3615L62.7515 32.5175H62.7491ZM43.7459 39.5358L43.701 39.3869L43.5922 39.42V39.5358H43.7459ZM53.8964 41.4577H54.05V41.0771L53.7853 41.3489L53.8964 41.4577ZM53.8964 46.488L54.0051 46.5967L54.05 46.5518V46.488H53.8964ZM42.6372 57.1656V57.3216H42.6396V57.1656H42.6372ZM42.3772 57.168H42.2212V57.324H42.3772V57.168ZM43.2613 31.9691L43.136 31.8792H43.1336V31.8863L43.2637 31.9714L43.2613 31.9691ZM43.7483 31.293H43.9019V30.8131L43.6206 31.2032L43.7483 31.293ZM43.7435 35.5976H43.5899V35.8174L43.7955 35.7418L43.7435 35.5952V35.5976ZM61.1558 29.2837V29.13H61.1275L61.1015 29.1395L61.1558 29.2861V29.2837ZM70.2946 27.6621C70.2899 27.2508 70.1244 26.8938 69.3632 26.0286C68.5973 25.1587 67.2003 23.7428 64.6662 21.2087L64.4464 21.4285C66.9828 23.9673 68.3727 25.3738 69.1292 26.2343C69.8904 27.0971 69.9802 27.3784 69.9849 27.6668L70.2946 27.6621ZM64.6662 21.2087L59.5531 16.0933L59.3333 16.3131L64.4464 21.4285L64.6662 21.2087ZM54.3266 16.3107L58.5319 20.5988L58.7518 20.3813L54.5488 16.0933L54.3266 16.3107ZM58.5319 20.5988C59.6879 21.7784 60.728 22.8492 61.4702 23.6246C61.8414 24.0122 62.1392 24.3266 62.3401 24.5418C62.4418 24.6505 62.5151 24.7332 62.5647 24.7876C62.5883 24.816 62.6049 24.8349 62.612 24.8443C62.6167 24.8514 62.6143 24.8491 62.612 24.8396C62.612 24.8372 62.6073 24.8325 62.6049 24.8254C62.6049 24.8183 62.5978 24.8041 62.5954 24.7829C62.5954 24.764 62.5954 24.712 62.6356 24.667C62.6805 24.6198 62.7349 24.6174 62.7562 24.6174L62.742 24.9271C62.7656 24.9271 62.82 24.9271 62.8626 24.8774C62.9051 24.8325 62.9075 24.7805 62.9051 24.7592C62.9051 24.7214 62.8862 24.6954 62.8862 24.693C62.8767 24.6789 62.8673 24.6647 62.8602 24.6552C62.846 24.6363 62.8247 24.6127 62.8011 24.5819C62.7491 24.5228 62.6711 24.4377 62.5694 24.329C62.3661 24.1115 62.0683 23.7971 61.6972 23.4071C60.9525 22.6294 59.9124 21.5585 58.7541 20.379L58.5343 20.5964L58.5319 20.5988ZM43.7435 17.4289H43.8995V17.4241V17.4194V17.4147V17.4099V17.4052V17.4005V17.3958V17.391V17.3863V17.3816V17.3769V17.3721V17.3674V17.3627V17.3579V17.3508V17.3461V17.339V17.3319V17.3248V17.3178V17.3059V11.4317H43.5899V17.3036V17.3107V17.3178V17.3248V17.3319V17.339V17.3461V17.3508V17.3579V17.3627V17.3674V17.3721V17.3769V17.3816V17.3863V17.391V17.3958V17.4005V17.4052V17.4099V17.4147V17.4194V17.4241V17.4289H43.7435ZM43.8995 11.4364V5.55984V5.55274V5.54565V5.53856V5.53147V5.52438V5.51729V5.51256V5.50783V5.5031V5.49837V5.49365V5.48892V5.48419V5.47946V5.47474V5.47001V5.46528V5.46055V5.45582V5.4511V5.44637V5.44164C43.8995 5.44164 43.8995 5.44164 43.7435 5.44164H43.5899V5.44637V5.4511V5.45582V5.46055V5.46528V5.47001V5.47474V5.47946V5.48419V5.48892V5.49365V5.49837V5.5031V5.50783V5.51256V5.51729V5.52438V5.53147V5.53856V5.54565V5.55274V5.55984V11.4388H43.8995V11.4364ZM43.7435 5.44401L43.6348 5.55511C43.6348 5.55511 43.6372 5.55511 43.6372 5.55747C43.6419 5.55984 43.6466 5.56456 43.6513 5.57165C43.6655 5.58347 43.6844 5.60239 43.7081 5.62839C43.7577 5.67803 43.831 5.74895 43.9232 5.84114C44.1123 6.02552 44.3818 6.29264 44.7127 6.62122C45.3722 7.27837 46.28 8.17665 47.2562 9.1482C49.2135 11.0937 51.4545 13.3299 52.5986 14.5L52.8208 14.2825C51.6743 13.1101 49.431 10.8715 47.4761 8.92599C46.4974 7.95444 45.5921 7.0538 44.9302 6.39901C44.5993 6.07043 44.3298 5.80331 44.143 5.61893C44.0485 5.52674 43.9752 5.45346 43.9255 5.40618C43.9019 5.38254 43.883 5.36363 43.8712 5.34945C43.8641 5.34236 43.8594 5.33763 43.8546 5.33527L43.8523 5.3329L43.7435 5.44164V5.44401ZM52.601 14.5024L54.0571 15.9893L54.277 15.7718L52.8232 14.2849L52.601 14.5024ZM54.2793 10.7415L49.1568 5.63075L48.9393 5.85059L54.0595 10.9613L54.2793 10.7415ZM49.1568 5.63075C46.5754 3.05413 45.1595 1.65471 44.2943 0.903C43.8617 0.527144 43.5568 0.302576 43.3062 0.174927C43.0485 0.0425498 42.85 0.0118194 42.6372 0.0094555V0.319123C42.8074 0.319123 42.9564 0.342762 43.1644 0.4515C43.3819 0.562602 43.6632 0.765896 44.091 1.13939C44.9467 1.88401 46.3532 3.2716 48.9393 5.85296L49.1568 5.63312V5.63075ZM42.6396 0.00236388H42.3796L42.3748 0.309668H42.6372V0.00236388H42.6396ZM42.3701 23.6458L42.5545 24.1092L42.8429 23.9933L42.6585 23.53L42.3701 23.6458ZM42.5521 24.1021C42.6987 24.5205 42.9871 25.1233 43.1998 25.4518L43.4575 25.2816C43.2613 24.9791 42.9824 24.3999 42.8453 24.0004L42.5521 24.1021ZM43.1998 25.4542L43.6182 26.0712L43.8759 25.8963L43.4575 25.2793L43.1998 25.4542ZM43.9019 23.757V22.1519V22.133V22.1188V22.1117V22.1046V22.0975V22.0904V22.0833V22.0762V22.0691V22.0621V22.055V22.0479V22.0408V22.0337V22.0266V22.0195V22.0124V22.0053V21.9982V21.9911V21.984V21.977V21.9722V21.9651V21.9604V21.9533V21.9486V21.9439V21.9391V21.9344V21.9297V21.9249V21.9202V21.9155V21.9108V21.906V21.9013V21.8966V21.8919V21.8871V21.8824V21.8777V21.8729V21.8682V21.8635V21.8588V21.854V21.8493V21.8446V21.8398V21.8351V21.8304V21.8257V21.8209V21.8162V21.8115V21.8068V21.802V21.7973V21.7926V21.7878V21.7831V21.7784V21.7737V21.7689V21.7642V21.7595V21.7547V21.75V21.7453V21.7406V21.7358V21.7311V21.7264V21.7217V21.7169V21.7122V21.7075V21.7027V21.698V21.6933L43.5922 21.6909V21.6957V21.7004V21.7051V21.7098V21.7146V21.7193V21.724V21.7287V21.7335V21.7382V21.7429V21.7477V21.7524V21.7571V21.7618V21.7666V21.7713V21.776V21.7808V21.7855V21.7902V21.7949V21.7997V21.8044V21.8091V21.8138V21.8186V21.8233V21.828V21.8328V21.8375V21.8422V21.8469V21.8517V21.8564V21.8611V21.8659V21.8706V21.8753V21.88V21.8848V21.8895V21.8942V21.8989V21.9037V21.9084V21.9131V21.9179V21.9226V21.9273V21.932V21.9368V21.9415V21.9462V21.9533V21.958V21.9651V21.9699V21.977V21.9817V21.9888V21.9959V22.003V22.01V22.0171V22.0242V22.0313V22.0384V22.0455V22.0526V22.0597V22.0668V22.0739V22.081V22.0881V22.0951V22.1022V22.1093V22.1164V22.1306V22.1495V23.757H43.9019ZM65.6496 28.0143C67.7511 28.0143 68.8786 28.0119 69.4814 27.9836C69.7769 27.9694 69.9636 27.9505 70.0771 27.9174C70.1338 27.9008 70.1953 27.8748 70.2402 27.8228C70.2899 27.7661 70.2969 27.7023 70.2969 27.6573L69.9873 27.6621C69.9873 27.6621 69.9873 27.6408 70.0062 27.6195C70.018 27.6053 70.0227 27.6101 69.9873 27.6195C69.9164 27.6408 69.7674 27.6597 69.4672 27.6739C68.8739 27.6999 67.7534 27.7046 65.6496 27.7046V28.0143ZM62.6356 24.8727L65.5361 27.9646L65.763 27.7519L62.8626 24.66L62.6356 24.8727ZM43.7459 17.4241C43.5922 17.4241 43.5922 17.4241 43.5922 17.4241V17.4289V17.4336V17.4383V17.443V17.4478V17.4525V17.4572V17.462V17.4667V17.4714V17.4761V17.4832V17.4903V17.4974V21.6295V21.6366V21.6436V21.6507V21.6578V21.6626V21.6673V21.672V21.6767V21.6815V21.6862V21.6909V21.6957V21.7004V21.7051V21.7098H43.9019V21.7051V21.7004V21.6957V21.6909V21.6862V21.6815V21.6767V21.672V21.6673V21.6626V21.6578V21.6507V21.6436V21.6366V17.5021V17.495V17.488V17.4809V17.4738V17.469V17.4643V17.4596V17.4549V17.4501V17.4454V17.4407V17.4359V17.4312V17.4265C43.9019 17.4265 43.9019 17.4265 43.7459 17.4265V17.4241ZM69.9896 29.4775C69.9873 29.7659 69.8951 30.0472 69.1363 30.91C68.3775 31.7705 66.9899 33.177 64.4534 35.7158L64.6709 35.9356C67.205 33.4016 68.602 31.9856 69.3679 31.1157C70.1291 30.2505 70.2946 29.8936 70.2993 29.4823L69.9896 29.4775ZM64.4534 35.7158L59.338 40.8312L59.5579 41.0511L64.6709 35.9356L64.4534 35.7158ZM54.5535 41.0487L58.7589 36.7606L58.5367 36.5432L54.3313 40.8312L54.5535 41.0487ZM58.7589 36.7606C59.9148 35.5811 60.9525 34.548 61.6948 33.8058C62.0659 33.4347 62.3661 33.1392 62.5671 32.9335C62.6687 32.8319 62.7467 32.7515 62.7964 32.6971C62.8224 32.6711 62.8436 32.6475 62.8578 32.6286C62.8626 32.6215 62.8744 32.6073 62.8838 32.5931C62.8838 32.5931 62.9027 32.5624 62.9051 32.5246C62.9075 32.5009 62.9051 32.4466 62.8602 32.4016C62.8153 32.3567 62.7609 32.3567 62.742 32.3567L62.7585 32.6664C62.7373 32.6664 62.6853 32.6664 62.6403 32.6215C62.5954 32.5766 62.5954 32.5222 62.5954 32.5009C62.5978 32.4773 62.6049 32.4607 62.6073 32.456C62.6073 32.4489 62.6143 32.4418 62.6143 32.4395C62.6191 32.43 62.6238 32.4276 62.6191 32.4347C62.6096 32.4442 62.5954 32.4607 62.5694 32.4867C62.5222 32.5387 62.4465 32.6144 62.3472 32.7184C62.1463 32.9217 61.8485 33.2172 61.4773 33.5883C60.7327 34.3282 59.695 35.3659 58.5367 36.5455L58.7589 36.763V36.7606ZM62.7396 32.3567C62.7184 32.3567 62.6994 32.3638 62.6971 32.3638C62.69 32.3662 62.6805 32.3685 62.6687 32.3733C62.6498 32.3804 62.6214 32.3898 62.586 32.4016C62.5151 32.4276 62.4087 32.4655 62.2574 32.5198C61.9572 32.6286 61.4844 32.8059 60.7705 33.073C59.3427 33.6072 56.96 34.5055 53.1068 35.9616L53.2179 36.2524C57.0687 34.7986 59.4515 33.9003 60.8793 33.3661C61.5932 33.099 62.0659 32.9217 62.3638 32.813C62.5151 32.7586 62.6191 32.7208 62.69 32.6971C62.7231 32.6853 62.7491 32.6759 62.7656 32.6711C62.7727 32.6688 62.7775 32.6664 62.7798 32.6664C62.7893 32.664 62.7775 32.6664 62.7585 32.6688L62.7396 32.3591V32.3567ZM53.1068 35.9616C49.2561 37.4178 46.904 38.2711 45.5141 38.7628C44.8191 39.0087 44.3652 39.1647 44.0863 39.2569C43.9468 39.3042 43.8499 39.3349 43.7884 39.3538C43.7577 39.3633 43.7364 39.3703 43.7223 39.3751C43.7152 39.3751 43.7104 39.3798 43.7057 39.3798H43.7033L43.7483 39.5287L43.7932 39.6777C43.7932 39.6777 43.7955 39.6777 43.7979 39.6777C43.8003 39.6777 43.8074 39.6753 43.8144 39.6729C43.8286 39.6682 43.8499 39.6611 43.883 39.6517C43.9445 39.6327 44.0414 39.5996 44.1832 39.5524C44.4645 39.4578 44.9207 39.3018 45.6181 39.056C47.0104 38.5643 49.3648 37.7062 53.2179 36.2524L53.1068 35.9616ZM43.7459 39.5311H43.5922V39.5358V39.5406V39.5453V39.55V39.5547V39.5595V39.5642V39.5689V39.5736V39.5784V39.5831V39.5878V39.5926V39.5973V39.602V39.6091V39.6162V39.6233V39.6304V39.6375V45.8686H43.9019V39.6398V39.6327V39.6256V39.6186V39.6115V39.6044V39.5996V39.5926V39.5878V39.5831V39.5784V39.5736V39.5689V39.5642V39.5595V39.5547V39.55V39.5453V39.5406V39.5358V39.5311C43.9019 39.5311 43.9019 39.5287 43.7459 39.5287V39.5311ZM43.5922 45.8663V51.8587C43.5922 51.8587 43.5922 51.8611 43.5922 51.8634V51.8823C43.5922 51.8823 43.6561 51.9816 43.7459 52.0124V51.7027C43.8381 51.7311 43.8972 51.8209 43.8995 51.8327V51.8445C43.8995 51.8445 43.8995 51.8493 43.8995 51.8516V51.8469C43.8995 51.8469 43.8995 51.8351 43.8995 51.8232V45.8639H43.5899L43.5922 45.8663ZM43.7483 52.0124C43.805 52.0029 43.8546 51.9698 43.8546 51.9698C43.857 51.9698 43.857 51.9698 43.857 51.9698C43.857 51.9698 43.857 51.9674 43.8617 51.9651C43.8617 51.9627 43.8688 51.958 43.8759 51.9509C43.8877 51.9391 43.9066 51.9202 43.9303 51.8942C43.9776 51.8445 44.0461 51.7736 44.1359 51.6814C44.3156 51.497 44.5756 51.2323 44.8947 50.9037C45.5306 50.2513 46.4005 49.3554 47.3437 48.3885C49.2301 46.4525 51.4025 44.2234 52.549 43.0509L52.3268 42.8334C51.1826 44.0059 49.0079 46.235 47.1215 48.1711C46.1783 49.1402 45.3084 50.0338 44.6725 50.6862C44.3534 51.0124 44.0957 51.2796 43.9161 51.4616C43.8263 51.5538 43.7553 51.6247 43.7081 51.6743C43.6844 51.698 43.6655 51.7169 43.6537 51.7287C43.6466 51.7358 43.6442 51.7405 43.6395 51.7429L43.6372 51.7452C43.6372 51.7452 43.6372 51.7452 43.6395 51.7452C43.6395 51.7452 43.6915 51.7121 43.7459 51.7027V52.0124H43.7483ZM52.5513 43.0485L54.0051 41.5617L53.7853 41.3442L52.3291 42.8311L52.5513 43.0485ZM53.7876 46.3745L48.6675 51.4852L48.8873 51.7051L54.0075 46.5944L53.7876 46.3745ZM48.6675 51.4852C46.079 54.0689 44.7434 55.4542 43.9515 56.1964C43.5568 56.5699 43.3109 56.7685 43.1195 56.8796C42.9398 56.9836 42.8098 57.0049 42.6396 57.0072V57.3169C42.8547 57.3169 43.0391 57.2838 43.2755 57.1491C43.5 57.019 43.7695 56.7968 44.1643 56.4233C44.9586 55.6764 46.306 54.2817 48.8873 51.7051L48.6675 51.4852ZM42.6396 57.0072H42.3772V57.3193H42.6396L42.6372 57.0072H42.6396ZM42.6301 33.7656L42.7814 33.3283L42.4883 33.2266L42.337 33.664L42.6301 33.7656ZM42.7814 33.3283C42.9185 32.9288 43.1951 32.3496 43.3937 32.0471L43.1336 31.8792C42.9209 32.2054 42.6325 32.8082 42.4883 33.229L42.7814 33.3306V33.3283ZM43.3889 32.0542L43.8759 31.3781L43.623 31.1984L43.1384 31.8745L43.3889 32.0565V32.0542ZM43.7506 31.2883H43.5946V33.5127H43.9043V31.2906C43.9043 31.2906 43.9043 31.2883 43.7506 31.2883ZM43.5946 33.5127C43.5946 34.1131 43.5946 34.6331 43.5946 35.0019V35.5882C43.5946 35.5882 43.5946 35.5905 43.7483 35.5905H43.9043V35.0019C43.9043 34.6308 43.9043 34.1107 43.9043 33.5127H43.5946ZM43.7459 35.5929C43.7806 35.6906 43.7987 35.7394 43.8003 35.7394C43.8003 35.7394 43.805 35.7394 43.8074 35.7371C43.8144 35.7347 43.8263 35.73 43.8404 35.7253C43.8688 35.7158 43.9114 35.6992 43.9681 35.6803C44.0816 35.6402 44.247 35.5811 44.4621 35.503C44.89 35.3494 45.5117 35.1248 46.2847 34.8459C47.833 34.288 49.9842 33.5079 52.4048 32.6286L52.3008 32.3378C49.8801 33.2172 47.7267 33.9973 46.1807 34.5551C45.4077 34.8341 44.7836 35.0586 44.3558 35.2123C44.1407 35.2903 43.9752 35.3494 43.8641 35.3896C43.8074 35.4109 43.7648 35.425 43.7364 35.4369C43.7199 35.4416 43.7104 35.4463 43.7033 35.4487C43.6986 35.4487 43.6962 35.451 43.6939 35.451C43.6939 35.451 43.6939 35.451 43.6915 35.451C43.6915 35.451 43.6915 35.451 43.7435 35.5976L43.7459 35.5929ZM52.4071 32.6238L61.2102 29.4232L61.1038 29.1324L52.3031 32.3331L52.4071 32.6238ZM61.1582 29.4326H65.6519V29.1229H61.1582V29.4326ZM65.6519 29.4326C67.7581 29.4326 68.8763 29.435 69.4696 29.4633C69.7722 29.4775 69.9211 29.4964 69.992 29.5177C70.0275 29.5272 70.0204 29.5343 70.0086 29.5177C69.9896 29.4964 69.9896 29.4752 69.9896 29.4752L70.2993 29.4799C70.2993 29.435 70.2922 29.3712 70.2426 29.3144C70.1977 29.2648 70.1362 29.2364 70.0795 29.2199C69.966 29.1868 69.7793 29.1679 69.4838 29.1537C68.881 29.1277 67.7534 29.1229 65.6519 29.1229V29.4326ZM59.4444 16.0413H54.4401V16.3509H59.4444V16.0413ZM54.3242 15.8758V10.8455H54.0169V15.8758H54.3242ZM42.2212 0.156016V22.8729H42.5332V0.156016H42.2212ZM59.4468 40.7863H54.4424V41.096H59.4468V40.7863ZM53.7404 41.4553V46.4856H54.0524V41.4553H53.7404ZM42.5332 57.1656V34.3495H42.2212V57.1656H42.5332ZM43.9019 25.9837V24.8727H43.5922V25.9837H43.9019ZM43.9019 24.8727V23.757H43.5922V24.8727H43.9019ZM42.337 33.6663C42.2614 33.8862 42.2212 34.1155 42.2212 34.3471H42.5332C42.5332 34.1485 42.564 33.9523 42.6301 33.7656L42.337 33.664V33.6663ZM42.6585 23.5324C42.5758 23.322 42.5332 23.0998 42.5332 22.8752H42.2212C42.2212 23.14 42.2732 23.4024 42.3701 23.6482L42.6585 23.5324Z" fill="#81B0FC"/>
</g>
<path id="Vector_5" d="M18.8237 21.3127C13.7532 26.3856 13.2497 26.9576 13.2402 27.6597C13.2402 27.8465 13.5286 27.8606 17.734 27.8606L20.6344 24.7687C20.5801 24.7711 22.4263 22.8445 24.7381 20.4877L28.9435 16.1996H23.9391L18.8237 21.3151V21.3127Z" fill="#81B0FC"/>
<path id="Vector_6" d="M39.6375 11.4317V25.9837L40.0535 25.3667C40.2592 25.0523 40.5429 24.4614 40.6847 24.0524L40.8691 23.5891C40.9589 23.3622 41.0062 23.1187 41.0062 22.8729V0.156006H40.7438C39.9732 0.165461 39.5028 0.576776 34.333 5.73712L29.2104 10.8478V15.8781L30.669 14.3913C32.9596 12.0487 39.6375 5.43927 39.6375 5.43927V11.4317Z" fill="#81B0FC"/>
<path id="Vector_7" fill-rule="evenodd" clip-rule="evenodd" d="M13.2378 29.4775C13.2473 30.1772 13.7508 30.7493 18.8213 35.8245L23.9343 40.94H28.941L24.7357 36.6519C22.4238 34.2927 20.5776 32.508 20.6344 32.5127C20.6887 32.5151 22.516 33.1983 30.2199 36.1082C37.9238 39.0181 39.6376 39.5335 39.6376 39.5335V45.8686C39.6376 49.1213 39.6376 51.8611 39.6352 51.8611C39.6328 51.8611 33.2338 45.2871 30.9432 42.9445L29.4871 41.4577V46.488L34.6072 51.5987C39.7747 56.7567 39.9732 57.1585 40.7439 57.1656H41.0039L41.0063 34.3518C41.0063 34.1367 40.9708 33.924 40.8999 33.7207L40.7486 33.2834C40.6068 32.8744 40.3255 32.2835 40.1198 31.9691L39.6328 31.293V33.5174C39.6328 34.7182 39.6376 35.5976 39.6376 35.5976C39.6376 35.5976 35.8696 34.2431 31.0283 32.4844L22.2253 29.2837H17.7315C13.5238 29.2837 13.2354 29.2979 13.2378 29.4846V29.4775Z" fill="#81B0FC"/>
<g id="Group_2">
<path id="Vector_8" d="M23.9388 16.1949L23.8277 16.0862L23.875 16.0413H23.9388V16.1949ZM28.9432 16.1949V16.0389H29.3119L29.0543 16.3013L28.9432 16.1925V16.1949ZM20.6341 24.764L20.6247 24.6103L21.01 24.5914L20.7476 24.8727L20.6341 24.7663V24.764ZM39.6373 5.43928L39.5262 5.33054L39.791 5.06815V5.43928H39.6373ZM29.2126 15.8782L29.3237 15.9869L29.059 16.2587V15.8782H29.2126ZM29.2103 10.8478H29.0566V10.784L29.1015 10.7391L29.2103 10.8478ZM41.006 0.15838V0H41.1597V0.156016H41.006V0.15838ZM40.6845 24.0548L40.538 24.0052V23.9981L40.6822 24.0548H40.6845ZM39.6373 25.9861L39.765 26.0735L39.4813 26.492V25.9884H39.6373V25.9861ZM17.7336 27.863L17.8471 27.9694L17.7998 28.019H17.7336V27.8654V27.863ZM23.9341 40.9447V41.0983H23.8703L23.8254 41.0534L23.9341 40.9447ZM28.9408 40.9447L29.0495 40.836L29.3095 41.0983H28.9408V40.9423V40.9447ZM20.6341 32.5175L20.6412 32.3615H20.6436L20.6341 32.5175ZM39.6373 39.5358L39.6799 39.3869L39.791 39.42V39.5358H39.6373ZM29.4868 41.4577H29.3332V41.0771L29.5979 41.3489L29.4868 41.4577ZM29.4845 46.488L29.3757 46.5967L29.3308 46.5518V46.488H29.4845ZM41.0036 57.168H41.1597V57.324H41.0036V57.168ZM40.1196 31.9691L40.2448 31.8792L40.2472 31.8863L40.1172 31.9714L40.1196 31.9691ZM39.6326 31.293H39.4789V30.8131L39.7579 31.2032L39.6326 31.293ZM39.6373 35.5976H39.791V35.8174L39.583 35.7418L39.6373 35.5952V35.5976ZM22.225 29.2837V29.13H22.2534L22.2794 29.1395L22.225 29.2861V29.2837ZM13.0863 27.6621C13.091 27.2508 13.2565 26.8938 14.0176 26.0286C14.7835 25.1587 16.1806 23.7428 18.7147 21.2087L18.9345 21.4285C16.3957 23.9673 15.0081 25.3738 14.2517 26.2343C13.4905 27.0971 13.3983 27.3784 13.3959 27.6668L13.0863 27.6621ZM18.7147 21.2087L23.8277 16.0933L24.0476 16.3131L18.9345 21.4285L18.7147 21.2087ZM29.0543 16.3107L24.8489 20.5988L24.6267 20.3813L28.832 16.0933L29.0543 16.3107ZM24.8489 20.5988C23.693 21.7784 22.6529 22.8492 21.9106 23.6246C21.5371 24.0122 21.2416 24.3266 21.0407 24.5418C20.9391 24.6505 20.8634 24.7332 20.8161 24.7876C20.7925 24.816 20.776 24.8349 20.7689 24.8443C20.7641 24.8514 20.7689 24.8491 20.7712 24.8396C20.7712 24.8372 20.7712 24.8325 20.7783 24.8254C20.7807 24.8183 20.7854 24.8041 20.7878 24.7829C20.7878 24.764 20.7878 24.712 20.7452 24.667C20.7027 24.6198 20.6483 24.6174 20.6247 24.6174L20.6412 24.9271C20.6176 24.9271 20.5632 24.9271 20.5183 24.8774C20.4781 24.8325 20.4757 24.7805 20.4781 24.7592C20.4805 24.7214 20.497 24.6954 20.497 24.693C20.5065 24.6789 20.5159 24.6647 20.523 24.6552C20.5372 24.6363 20.5585 24.6127 20.5821 24.5819C20.6341 24.5228 20.7121 24.4377 20.8138 24.329C21.0147 24.1115 21.3149 23.7971 21.686 23.4071C22.4307 22.6294 23.4708 21.5585 24.6267 20.379L24.8489 20.5964V20.5988ZM39.6373 17.4289H39.4813V17.4241V17.4194V17.4147V17.4099V17.4052V17.4005V17.3958V17.391V17.3863V17.3816V17.3769V17.3721V17.3674V17.3627V17.3579V17.3508V17.3461V17.339V17.3319V17.3248V17.3178V17.3059V11.4317H39.791V17.3036V17.3107V17.3178V17.3248V17.3319V17.339V17.3461V17.3508V17.3579V17.3627V17.3674V17.3721V17.3769V17.3816V17.3863V17.391V17.3958V17.4005V17.4052V17.4099V17.4147V17.4194V17.4241V17.4289H39.6373ZM39.4813 11.4364V5.55984V5.55274V5.54565V5.53856V5.53147V5.52438V5.51729V5.51256V5.50783V5.5031V5.49837V5.49365V5.48892V5.48419V5.47946V5.47474V5.47001V5.46528V5.46055V5.45582V5.4511V5.44637V5.44164C39.4813 5.44164 39.4813 5.44164 39.6373 5.44164H39.791V5.44637V5.4511V5.45582V5.46055V5.46528V5.47001V5.47474V5.47946V5.48419V5.48892V5.49365V5.49837V5.5031V5.50783V5.51256V5.51729V5.52438V5.53147V5.53856V5.54565V5.55274V5.55984V11.4388H39.4813V11.4364ZM39.6373 5.44401L39.7461 5.55511C39.7461 5.55511 39.7461 5.55511 39.7437 5.55511C39.7437 5.55511 39.7437 5.55747 39.7437 5.55984C39.739 5.5622 39.7342 5.56693 39.7271 5.57402C39.7153 5.58584 39.6964 5.60475 39.6728 5.63075C39.6231 5.68039 39.5499 5.75131 39.4553 5.8435C39.2686 6.02788 38.9991 6.295 38.6681 6.62358C38.0062 7.28074 37.1009 8.17901 36.1222 9.15056C34.1673 11.096 31.9264 13.3323 30.7822 14.5024L30.56 14.2849C31.7065 13.1124 33.9498 10.8738 35.9048 8.92836C36.8834 7.95681 37.7888 7.05617 38.4507 6.40138C38.7816 6.0728 39.0511 5.80568 39.2378 5.6213C39.3324 5.52911 39.4057 5.45582 39.4529 5.40855C39.4789 5.38491 39.4979 5.366 39.5097 5.35181C39.5168 5.34472 39.5215 5.33999 39.5239 5.33763C39.5262 5.33763 39.5286 5.33527 39.5286 5.33527C39.5286 5.33527 39.5286 5.33527 39.6397 5.44401H39.6373ZM30.7799 14.5024L29.3237 15.9893L29.1039 15.7718L30.5577 14.2849L30.7799 14.5024ZM29.1015 10.7415L34.224 5.63075L34.4415 5.85059L29.3214 10.9613L29.1015 10.7415ZM34.224 5.63075C36.8054 3.05413 38.2214 1.65471 39.0865 0.903C39.5191 0.527144 39.8217 0.302576 40.0723 0.174927C40.3323 0.0425498 40.5309 0.0118194 40.7436 0.0094555V0.319123C40.5734 0.319123 40.4245 0.342762 40.2165 0.4515C39.999 0.562602 39.7177 0.765896 39.2898 1.13939C38.4341 1.88401 37.0276 3.2716 34.4415 5.85296L34.224 5.63312V5.63075ZM40.7436 0.00236388H41.0036L41.006 0.309668H40.746L40.7436 0.00236388ZM41.0131 23.6458L40.8264 24.1092L40.5403 23.9933L40.7247 23.53L41.0131 23.6458ZM40.8311 24.1021C40.6845 24.5205 40.3961 25.1233 40.1834 25.4518L39.9234 25.2816C40.1219 24.9791 40.3985 24.3999 40.538 24.0004L40.8311 24.1021ZM40.1834 25.4542L39.765 26.0712L39.5073 25.8963L39.9257 25.2793L40.1834 25.4542ZM39.4813 23.757V22.1519V22.133V22.1188V22.1117V22.1046V22.0975V22.0904V22.0833V22.0762V22.0691V22.0621V22.055V22.0479V22.0408V22.0337V22.0266V22.0195V22.0124V22.0053V21.9982V21.9911V21.984V21.977V21.9722V21.9651V21.9604V21.9533V21.9486V21.9439V21.9391V21.9344V21.9297V21.9249V21.9202V21.9155V21.9108V21.906V21.9013V21.8966V21.8919V21.8871V21.8824V21.8777V21.8729V21.8682V21.8635V21.8588V21.854V21.8493V21.8446V21.8398V21.8351V21.8304V21.8257V21.8209V21.8162V21.8115V21.8068V21.802V21.7973V21.7926V21.7878V21.7831V21.7784V21.7737V21.7689V21.7642V21.7595V21.7547V21.75V21.7453V21.7406V21.7358V21.7311V21.7264V21.7217V21.7169V21.7122V21.7075V21.7027V21.698V21.6933L39.791 21.6909V21.6957V21.7004V21.7051V21.7098V21.7146V21.7193V21.724V21.7287V21.7335V21.7382V21.7429V21.7477V21.7524V21.7571V21.7618V21.7666V21.7713V21.776V21.7808V21.7855V21.7902V21.7949V21.7997V21.8044V21.8091V21.8138V21.8186V21.8233V21.828V21.8328V21.8375V21.8422V21.8469V21.8517V21.8564V21.8611V21.8659V21.8706V21.8753V21.88V21.8848V21.8895V21.8942V21.8989V21.9037V21.9084V21.9131V21.9179V21.9226V21.9273V21.932V21.9368V21.9415V21.9462V21.9533V21.958V21.9651V21.9699V21.977V21.9817V21.9888V21.9959V22.003V22.01V22.0171V22.0242V22.0313V22.0384V22.0455V22.0526V22.0597V22.0668V22.0739V22.081V22.0881V22.0951V22.1022V22.1093V22.1164V22.1306V22.1495V23.757H39.4813ZM17.7336 28.0143C15.6322 28.0143 14.5046 28.0119 13.9018 27.9836C13.6063 27.9694 13.4196 27.9505 13.3061 27.9174C13.2494 27.9008 13.1879 27.8748 13.143 27.8228C13.0934 27.7661 13.0839 27.7023 13.0863 27.6573L13.3959 27.6621C13.3959 27.6621 13.3959 27.6408 13.377 27.6195C13.3652 27.6053 13.3581 27.6101 13.3936 27.6195C13.4669 27.6408 13.6158 27.6597 13.916 27.6739C14.5093 27.6999 15.6274 27.7046 17.7336 27.7046V28.0143ZM20.7476 24.8727L17.8471 27.9646L17.6202 27.7519L20.5207 24.66L20.7476 24.8727ZM39.6373 17.4241C39.791 17.4241 39.791 17.4241 39.791 17.4241V17.4289V17.4336V17.4383V17.443V17.4478V17.4525V17.4572V17.462V17.4667V17.4714V17.4761V17.4832V17.4903V17.4974V21.6295V21.6366V21.6436V21.6507V21.6578V21.6626V21.6673V21.672V21.6767V21.6815V21.6862V21.6909V21.6957V21.7004V21.7051V21.7098H39.4813V21.7051V21.7004V21.6957V21.6909V21.6862V21.6815V21.6767V21.672V21.6673V21.6626V21.6578V21.6507V21.6436V21.6366V17.5021V17.495V17.488V17.4809V17.4738V17.469V17.4643V17.4596V17.4549V17.4501V17.4454V17.4407V17.4359V17.4312V17.4265C39.4813 17.4265 39.4813 17.4265 39.6373 17.4265V17.4241ZM13.3936 29.4775C13.3936 29.7659 13.4881 30.0472 14.2469 30.91C15.0034 31.7705 16.3933 33.177 18.9298 35.7158L18.7123 35.9356C16.1782 33.4016 14.7788 31.9856 14.0153 31.1157C13.2541 30.2505 13.0886 29.8936 13.0815 29.4823L13.3936 29.4775ZM18.9298 35.7158L24.0452 40.8312L23.8254 41.0511L18.7123 35.9356L18.9298 35.7158ZM28.8297 41.0487L24.6243 36.7606L24.8466 36.5432L29.0495 40.8312L28.8297 41.0487ZM24.6243 36.7606C23.4684 35.5811 22.4307 34.548 21.686 33.8058C21.3149 33.4347 21.0171 33.1392 20.8161 32.9335C20.7145 32.8319 20.6365 32.7515 20.5868 32.6971C20.5608 32.6711 20.5396 32.6475 20.5254 32.6286C20.5183 32.6215 20.5088 32.6073 20.4994 32.5931C20.4994 32.5931 20.4805 32.5624 20.4781 32.5246C20.4781 32.5009 20.4781 32.4466 20.523 32.4016C20.5679 32.3567 20.6199 32.3567 20.6412 32.3567L20.6247 32.6664C20.6459 32.6664 20.6979 32.6664 20.7405 32.6215C20.7878 32.5766 20.7878 32.5222 20.7878 32.5009C20.7878 32.4773 20.7783 32.4607 20.776 32.456C20.7736 32.4489 20.7689 32.4418 20.7689 32.4395C20.7641 32.43 20.7594 32.4276 20.7641 32.4347C20.7736 32.4442 20.7878 32.4607 20.8114 32.4867C20.8611 32.5387 20.9367 32.6144 21.036 32.7184C21.2369 32.9217 21.5348 33.2172 21.9059 33.5883C22.6481 34.3282 23.6883 35.3659 24.8466 36.5455L24.6243 36.763V36.7606ZM20.6436 32.3567C20.6649 32.3567 20.6838 32.3638 20.6861 32.3638C20.6932 32.3662 20.7027 32.3685 20.7121 32.3733C20.7334 32.3804 20.7618 32.3898 20.7972 32.4016C20.8682 32.4276 20.9745 32.4655 21.1234 32.5198C21.4237 32.6286 21.8988 32.8059 22.6127 33.073C24.0405 33.6072 26.4233 34.5055 30.274 35.9616L30.1653 36.2524C26.3145 34.7986 23.9317 33.9003 22.504 33.3661C21.7901 33.099 21.3173 32.9217 21.0171 32.813C20.8682 32.7586 20.7641 32.7208 20.6932 32.6971C20.6601 32.6853 20.6341 32.6759 20.6176 32.6711C20.6105 32.6688 20.6058 32.6664 20.6034 32.6664C20.5939 32.664 20.6034 32.6664 20.6247 32.6688L20.6436 32.3591V32.3567ZM30.274 35.9616C34.1271 37.4178 36.4792 38.2711 37.8691 38.7628C38.5641 39.0087 39.018 39.1647 39.2969 39.2569C39.4364 39.3042 39.5333 39.3349 39.5948 39.3538C39.6255 39.3633 39.6468 39.3703 39.661 39.3751C39.6681 39.3751 39.6728 39.3798 39.6751 39.3798C39.6775 39.3798 39.6799 39.3798 39.6799 39.3798C39.6799 39.3798 39.6799 39.3798 39.6373 39.5287L39.5924 39.6777H39.59C39.59 39.6777 39.59 39.6777 39.5853 39.6777C39.5853 39.6777 39.5759 39.6753 39.5688 39.6729C39.5546 39.6682 39.531 39.6611 39.5002 39.6517C39.4388 39.6327 39.3395 39.5996 39.2 39.5524C38.9163 39.4578 38.4625 39.3018 37.7651 39.056C36.3728 38.5643 34.0184 37.7062 30.1653 36.2524L30.274 35.9616ZM39.6373 39.5311H39.791V39.5358V39.5406V39.5453V39.55V39.5547V39.5595V39.5642V39.5689V39.5736V39.5784V39.5831V39.5878V39.5926V39.5973V39.602V39.6091V39.6162V39.6233V39.6304V39.6375V45.8686H39.4813V39.6398V39.6327V39.6256V39.6186V39.6115V39.6044V39.5996V39.5926V39.5878V39.5831V39.5784V39.5736V39.5689V39.5642V39.5595V39.5547V39.55V39.5453V39.5406V39.5358V39.5311C39.4813 39.5311 39.4813 39.5287 39.6373 39.5287V39.5311ZM39.791 45.8663V51.7334C39.791 51.7736 39.7886 51.8043 39.7886 51.8256V51.8682C39.7886 51.8682 39.7886 51.8776 39.7886 51.88C39.7862 51.8918 39.7271 51.9793 39.6373 52.01V51.7003C39.5451 51.7287 39.486 51.8185 39.4837 51.8303C39.4837 51.8351 39.4837 51.8398 39.4813 51.8422V51.8469V51.7287C39.4837 51.6483 39.4837 51.5278 39.4837 51.3741V45.8615H39.7933L39.791 45.8663ZM39.635 52.0124C39.5782 52.0029 39.5286 51.9698 39.5262 51.9698C39.5262 51.9698 39.5239 51.9651 39.5215 51.9651C39.5191 51.9627 39.5144 51.958 39.5073 51.9509C39.4955 51.9391 39.4766 51.9202 39.4529 51.8942C39.4057 51.8445 39.3347 51.7736 39.2449 51.6814C39.0653 51.497 38.8076 51.2323 38.4885 50.9037C37.8526 50.2513 36.9827 49.3554 36.0395 48.3885C34.1531 46.4525 31.9784 44.2234 30.8343 43.0509L31.0541 42.8334C32.2006 44.0059 34.373 46.235 36.2593 48.1711C37.2025 49.1402 38.0748 50.0338 38.7107 50.6862C39.0298 51.0124 39.2875 51.2796 39.4671 51.4616C39.557 51.5538 39.6279 51.6247 39.6751 51.6743C39.6988 51.698 39.7177 51.7169 39.7295 51.7287C39.7342 51.7358 39.739 51.7405 39.7437 51.7429V51.7452C39.7413 51.7452 39.6917 51.7121 39.6373 51.7027V52.0124H39.635ZM30.8319 43.0485L29.3757 41.5617L29.5979 41.3442L31.0517 42.8311L30.8319 43.0485ZM29.5956 46.3745L34.7157 51.4852L34.4959 51.7051L29.3757 46.5944L29.5956 46.3745ZM34.7157 51.4852C37.3042 54.0689 38.6398 55.4542 39.4293 56.1964C39.8264 56.5699 40.0723 56.7685 40.2638 56.8796C40.4434 56.9836 40.5711 57.0049 40.7436 57.0072V57.3169C40.5285 57.3169 40.3441 57.2838 40.1077 57.1491C39.8832 57.019 39.6137 56.7968 39.2166 56.4233C38.4247 55.6764 37.0772 54.2817 34.4959 51.7051L34.7157 51.4852ZM40.7436 57.0072H41.006L41.0036 57.3193H40.7413V57.0072H40.7436ZM40.7531 33.7656L40.6018 33.3283L40.8949 33.2266L41.0462 33.664L40.7531 33.7656ZM40.6018 33.3283C40.4647 32.9288 40.1857 32.3496 39.9895 32.0471L40.2496 31.8792C40.4623 32.2054 40.7507 32.8082 40.8949 33.229L40.6018 33.3306V33.3283ZM39.9943 32.0542L39.5073 31.3781L39.7579 31.1984L40.2448 31.8745L39.9943 32.0565V32.0542ZM39.6326 31.2883H39.7886V31.9501C39.7886 32.3567 39.7886 32.9122 39.7886 33.5127H39.4789C39.4789 32.9122 39.4789 32.3567 39.4789 31.9501C39.4789 31.7469 39.4789 31.5814 39.4789 31.4655V31.2906C39.4789 31.2906 39.4789 31.2883 39.6326 31.2883ZM39.7886 33.5127C39.7886 34.1131 39.7886 34.6331 39.791 35.0019V35.5882C39.791 35.5882 39.791 35.5905 39.6373 35.5905H39.4813V35.0019C39.4789 34.6308 39.4789 34.1107 39.4789 33.5127H39.7886ZM39.6373 35.5929C39.6011 35.6906 39.583 35.7394 39.583 35.7394C39.583 35.7394 39.583 35.7394 39.5806 35.7394C39.5806 35.7394 39.5759 35.7394 39.5735 35.7371C39.5664 35.7347 39.5546 35.73 39.5404 35.7253C39.512 35.7158 39.4695 35.6992 39.4128 35.6803C39.2993 35.6402 39.1338 35.5811 38.9187 35.503C38.4908 35.3494 37.8691 35.1248 37.0938 34.8459C35.5478 34.288 33.3967 33.5079 30.9737 32.6286L31.0801 32.3378C33.5007 33.2172 35.6542 33.9973 37.2002 34.5551C37.9732 34.8341 38.5949 35.0586 39.0251 35.2123C39.2378 35.2903 39.4057 35.3494 39.5168 35.3896C39.5735 35.4109 39.616 35.425 39.6444 35.4369C39.6586 35.4416 39.6704 35.4463 39.6775 35.4487C39.6822 35.4487 39.6846 35.451 39.687 35.451L39.635 35.5976L39.6373 35.5929ZM30.9737 32.6238L22.173 29.4232L22.2794 29.1324L31.0801 32.3331L30.9737 32.6238ZM22.225 29.4326H17.7313V29.1229H22.225V29.4326ZM17.7313 29.4326C15.6251 29.4326 14.507 29.435 13.9136 29.4633C13.6111 29.4775 13.4621 29.4964 13.3912 29.5177C13.3558 29.5272 13.3628 29.5343 13.3747 29.5177C13.3912 29.4964 13.3912 29.4752 13.3936 29.4752L13.0815 29.4799C13.0815 29.435 13.091 29.3712 13.1406 29.3144C13.1856 29.2648 13.2447 29.2364 13.3037 29.2199C13.4172 29.1868 13.6016 29.1679 13.8994 29.1537C14.5022 29.1277 15.6298 29.1229 17.7313 29.1229V29.4326ZM23.9388 16.0413H28.9432V16.3509H23.9388V16.0413ZM29.059 15.8758V10.8455H29.3663V15.8758H29.059ZM41.1597 0.156016V22.8729H40.85V0.156016H41.1597ZM23.9341 40.7863H28.9408V41.096H23.9341V40.7863ZM29.6429 41.4553V46.4856H29.3308V41.4553H29.6429ZM40.85 57.1656V34.3495H41.1597V57.1656H40.85ZM39.4813 25.9837V24.8727H39.791V25.9837H39.4813ZM39.4813 24.8727V23.757H39.791V24.8727H39.4813ZM41.0462 33.6663C41.1218 33.8862 41.1597 34.1155 41.1597 34.3471H40.85C40.85 34.1485 40.8169 33.9523 40.7531 33.7656L41.0462 33.664V33.6663ZM40.7247 23.5324C40.8074 23.322 40.85 23.0998 40.85 22.8752H41.1597C41.1597 23.14 41.11 23.4024 41.0131 23.6482L40.7247 23.5324Z" fill="#81B0FC"/>
</g>
<path id="Vector_9" d="M8.05845 77.1971H11.5664C12.051 77.1971 12.2945 76.9536 12.2945 76.469V68.5855H8.05845V77.1995V77.1971ZM0 88V65.9805H20.353V77.6155C20.353 78.2183 20.1449 78.7265 19.7265 79.1426C19.3105 79.5586 18.8023 79.7666 18.1995 79.7666H8.05845V85.4281H20.4215L19.0339 87.9976H0V88Z" fill="#81B0FC"/>
<path id="Vector_10" d="M22.0337 65.9096H30.0898L33.4938 80.0456L36.8977 65.9096H44.9562L39.2593 88H27.7283L22.0337 65.9096Z" fill="#81B0FC"/>
<path id="Vector_11" d="M54.8373 77.1971H58.3453C58.8298 77.1971 59.0733 76.9536 59.0733 76.469V68.5855H54.8373V77.1995V77.1971ZM46.7788 87.9977V65.9781H67.1318V77.6131C67.1318 78.2159 66.9238 78.7242 66.5054 79.1402C66.0893 79.5563 65.5811 79.7643 64.9783 79.7643H54.8373V85.4258H67.2003L65.8127 87.9953H46.7788V87.9977Z" fill="#81B0FC"/>
<path id="Vector_12" d="M76.8686 88H68.8125V64.834H76.8686V68.3065L80.9675 66.2216H85.2745V71.8831H79.4405L76.8686 73.3061V87.9976V88Z" fill="#81B0FC"/>
</g>
<defs>
<clipPath id="clip0_9920_208">
<rect width="85.2745" height="88" fill="white"/>
</clipPath>
</defs>
</svg>
