<svg width="203" height="90" viewBox="0 0 203 90" fill="none" xmlns="http://www.w3.org/2000/svg">
<g id="uuid-b50b2a16-9e45-41dd-b335-e3b00e61cf3a" clip-path="url(#clip0_9920_182)">
<path id="Union" fill-rule="evenodd" clip-rule="evenodd" d="M54.1274 89.3706C54.478 89.7337 54.9601 89.9403 55.4641 89.9403C55.9681 89.9435 56.4502 89.7431 56.8039 89.3831L56.8571 89.3268L64.0132 78.1137L62.7391 77.2998L55.4641 88.6819L48.1891 77.2842L46.915 78.0981L54.0742 89.3143L54.1274 89.3706ZM29.2034 89.902C25.7443 89.902 22.9426 87.1003 22.9426 83.6412C22.9426 80.1821 25.7443 77.3804 29.2034 77.3804L40.9423 77.4305V78.9456L29.2065 78.8955C26.5864 78.9644 24.5172 81.14 24.5829 83.7602C24.6487 86.2864 26.6803 88.318 29.2065 88.3837L40.9455 88.437V89.9489L29.2034 89.902ZM30.0893 84.4582V82.9463L40.9329 82.9932V84.5052L30.0893 84.4582ZM16.5065 89.9397V84.4302H1.85632C0.829553 84.4302 0 83.5975 0 82.5708V77.4056H1.51511V82.9151H16.5065V77.4056H18.0185V89.9272L16.5065 89.9397ZM74.6317 89.8871C71.1726 89.8871 68.3709 87.0854 68.3709 83.6263C68.3709 80.1672 71.1726 77.3655 74.6317 77.3655L86.3738 77.4156V78.9307L74.6348 78.8775C72.0147 78.8775 69.8891 81.003 69.8891 83.6232C69.8891 86.2433 72.0147 88.3688 74.6348 88.3688L86.3769 88.4189V89.934L74.6317 89.8871ZM75.527 84.4433V82.9282L86.3706 82.9752V84.4903L75.527 84.4433ZM97.8026 88.1116C97.8058 89.1384 98.6353 89.9679 99.6621 89.9679L108.709 89.9554V88.4434H99.3177V84.4334H105.672C107.629 84.4272 109.21 82.8401 109.21 80.8836V80.8147C109.21 78.9114 107.67 77.3713 105.766 77.3713H93.057C92.0333 77.3744 91.2007 78.2039 91.2007 79.2276V89.9648H92.7158V78.8864H105.766C106.837 78.8864 107.707 79.7566 107.707 80.8272V80.8961C107.71 82.0168 106.806 82.9277 105.685 82.9308H99.6621C98.6353 82.9308 97.8026 83.7635 97.8026 84.7903V88.1116ZM116.488 89.9335C115.461 89.9335 114.632 89.1039 114.629 88.0771V77.4056H116.144V88.4215H132.581V89.9335H116.488ZM154.475 85.0281V89.9335H155.987V79.262C155.984 78.2383 155.155 77.4056 154.131 77.4056H139.825C138.801 77.4088 137.969 78.2383 137.969 79.262V89.9335H139.481V78.9208H154.475V83.513H143.469V85.0281H154.475ZM177.549 89.9999C177.249 89.9999 176.955 89.9279 176.688 89.7871L176.62 89.7495L162.896 78.5083V89.9404H161.384V79.2032C161.384 78.5552 161.719 77.9511 162.276 77.6161C162.567 77.4408 162.899 77.3469 163.24 77.3438C163.541 77.3438 163.835 77.4158 164.098 77.5566L164.167 77.5911L177.891 88.8354V77.4032H179.409V88.1405C179.409 89.1641 178.579 89.9937 177.556 89.9999H177.549ZM184.8 83.4758V89.9401V89.9432H196.589C200.048 89.9432 202.849 87.1415 202.849 83.6825C202.849 80.2234 200.048 77.4217 196.589 77.4217H184.8V78.9368H196.589C199.209 78.9368 201.334 81.0623 201.334 83.6825C201.334 86.3026 199.209 88.4281 196.589 88.4281H186.315V83.4758H184.8Z" fill="black"/>
<path id="Union_2" fill-rule="evenodd" clip-rule="evenodd" d="M101.425 61.0801C93.8323 61.0801 86.887 58.3102 81.5443 53.7256C80.4138 53.0362 79.3354 52.2896 78.3153 51.4911C77.1445 50.8321 76.0299 50.1244 74.9778 49.3722C73.6899 48.7066 72.4708 47.9935 71.3281 47.2372C70.0598 46.6288 68.8607 45.9825 67.7376 45.3019C66.3288 44.685 65.0075 44.0298 63.7826 43.3401C62.1597 42.6846 60.6592 41.9868 59.2948 41.2517C57.98 40.7535 56.7635 40.2363 55.6482 39.7024C53.9897 39.1476 52.49 38.5683 51.1556 37.9682C49.6709 37.5142 48.3148 37.0401 47.0997 36.5489C40.4992 34.7936 36.6287 32.7173 36.6287 30.5181C36.6287 28.3148 40.5055 26.2389 47.114 24.4868C48.3601 23.9838 49.7544 23.499 51.2833 23.0353C52.525 22.4827 53.908 21.948 55.4276 21.4343C56.6456 20.8423 57.9875 20.2706 59.4493 19.7222C60.8021 19.002 62.2862 18.3183 63.8886 17.6757C65.0646 17.0188 66.3283 16.3935 67.6721 15.8031C68.8231 15.1031 70.0544 14.4393 71.3587 13.8154C72.4935 13.0668 73.7034 12.3606 74.981 11.7012C76.0373 10.9464 77.1566 10.2364 78.3326 9.57554C79.3445 8.78461 80.4135 8.04487 81.5339 7.36125C86.8766 2.77286 93.8238 0 101.418 0C109.019 0 115.972 2.77631 121.317 7.3703C122.417 8.04227 123.468 8.76837 124.463 9.54392C125.697 10.2344 126.87 10.9789 127.973 11.7724C129.182 12.4014 130.33 13.0725 131.41 13.7819C132.785 14.4358 134.08 15.1339 135.285 15.8717C136.627 16.4653 137.888 17.0937 139.06 17.7535C140.593 18.3733 142.016 19.0307 143.319 19.7216C144.786 20.2699 146.133 20.8416 147.355 21.4338C148.89 21.9519 150.287 22.491 151.541 23.0481C153.087 23.5169 154.496 24.0072 155.754 24.5159C162.363 26.2724 166.239 28.3507 166.239 30.5525C166.239 32.7712 162.312 34.8595 155.625 36.618C154.45 37.0882 153.145 37.5422 151.722 37.9779C150.401 38.5731 148.917 39.1478 147.275 39.6982C146.101 40.2625 144.814 40.8083 143.418 41.3327C142.1 42.0365 140.657 42.7056 139.101 43.3355C137.89 44.0183 136.585 44.6673 135.194 45.2788C134.028 45.9874 132.78 46.6589 131.457 47.2894C130.343 48.0227 129.157 48.7152 127.905 49.3628C126.824 50.1365 125.677 50.8632 124.47 51.5383C123.445 52.3372 122.362 53.0836 121.226 53.7724C115.895 58.3222 108.981 61.0717 101.425 61.0801ZM147.712 37.2885C147.435 37.3379 147.154 37.3872 146.868 37.4363C146.704 37.4646 146.538 37.4929 146.372 37.5209C148.139 35.3411 149.1 32.9953 149.1 30.5522C149.1 28.0947 148.124 25.7348 146.333 23.5428C146.494 23.5701 146.655 23.5974 146.815 23.625C147.108 23.6755 147.397 23.7261 147.681 23.777C150.149 25.8786 151.52 28.1679 151.52 30.5465C151.52 32.9158 150.161 35.1954 147.712 37.2885ZM150.41 36.7785C150.115 36.8376 149.815 36.8966 149.51 36.9553C151.453 34.9533 152.512 32.7954 152.512 30.5465C152.512 28.2878 151.439 26.1201 149.471 24.1094C149.77 24.1672 150.065 24.2251 150.354 24.2833C153.297 26.2312 154.951 28.3568 154.951 30.5497C154.951 32.73 153.318 34.8422 150.41 36.7785ZM153.078 36.2078C152.962 36.2343 152.845 36.2608 152.727 36.2872C154.848 34.4677 155.953 32.5334 155.953 30.5497C155.953 28.5563 154.836 26.6105 152.692 24.7803C152.795 24.8033 152.896 24.8264 152.997 24.8494C156.493 26.6852 158.394 28.6486 158.394 30.5494C158.394 32.4371 156.522 34.3851 153.078 36.2078ZM160.513 34.0397C163.861 32.7421 165.238 31.5077 165.238 30.5494C165.238 29.5937 163.864 28.3555 160.526 27.0529C162.011 28.1685 162.808 29.3388 162.808 30.5404C162.808 31.7468 162.006 32.9211 160.513 34.0397ZM144.75 23.2837C146.91 25.5485 148.105 28.0043 148.105 30.5522C148.105 33.0862 146.924 35.5278 144.788 37.7803C144.281 37.8608 143.769 37.9397 143.251 38.017C144.83 35.6757 145.688 33.1618 145.688 30.5459C145.688 27.9213 144.823 25.3987 143.232 23.0498C143.743 23.1263 144.249 23.2042 144.75 23.2837ZM143.492 22.0806C143.479 22.069 143.466 22.0575 143.453 22.046C143.078 21.9689 142.7 21.893 142.319 21.8183C142.346 21.8521 142.373 21.886 142.4 21.92C142.767 21.9728 143.132 22.0264 143.492 22.0806ZM140.905 21.711C140.847 21.6462 140.788 21.5815 140.729 21.517C140.242 21.4277 139.75 21.3403 139.254 21.2547C139.312 21.3415 139.369 21.4286 139.426 21.5159C139.924 21.5798 140.417 21.6448 140.905 21.711ZM138.154 21.3569C138.077 21.2478 137.999 21.1391 137.919 21.0309C137.359 20.9396 136.794 20.8505 136.223 20.7638C136.294 20.8934 136.365 21.0235 136.434 21.1541C137.014 21.2202 137.587 21.2878 138.154 21.3569ZM136.96 22.2166C137.604 22.2922 138.241 22.3698 138.872 22.4496C140.412 24.9764 141.252 27.7021 141.252 30.5432C141.252 33.3773 140.417 36.0962 138.886 38.6174C138.253 38.6972 137.615 38.7748 136.97 38.8504C138.175 36.2352 138.826 33.4427 138.826 30.5434C138.826 27.637 138.171 24.8377 136.96 22.2166ZM135.226 21.0196C135.142 20.8718 135.056 20.7246 134.969 20.5781C134.367 20.4914 133.76 20.4071 133.147 20.3253C133.223 20.4911 133.296 20.6577 133.368 20.8249C133.994 20.8881 134.613 20.953 135.226 21.0196ZM133.789 21.8666C134.463 21.9364 135.131 22.0084 135.792 22.0825C137.109 24.7347 137.825 27.5834 137.825 30.5465C137.825 33.5005 137.113 36.34 135.805 38.9839C135.142 39.0581 134.473 39.1301 133.797 39.1998C134.829 36.4679 135.386 33.5594 135.386 30.5432C135.386 27.5198 134.826 24.6044 133.789 21.8666ZM132.24 20.7136C132.158 20.5329 132.073 20.3531 131.987 20.1742C131.354 20.0938 130.715 20.0161 130.071 19.9409C130.144 20.1371 130.215 20.3343 130.283 20.5324C130.942 20.5909 131.594 20.6514 132.24 20.7136ZM130.619 21.5587C131.314 21.6218 132.003 21.6873 132.687 21.755C133.796 24.5168 134.397 27.4723 134.397 30.5432C134.397 33.6068 133.798 36.5554 132.694 39.3113C132.007 39.3791 131.314 39.4447 130.615 39.5079C131.487 36.6733 131.958 33.663 131.961 30.5432V30.5369C131.961 27.4123 131.491 24.3973 130.619 21.5587ZM129.542 21.463C120.803 20.7046 111.235 20.3037 101.425 20.3037H101.262V20.3068C91.5051 20.3068 81.9933 20.7039 73.3008 21.4551C72.3763 24.3183 71.8768 27.3724 71.8768 30.5432C71.8768 33.6987 72.3715 36.7387 73.2874 39.5898C82.0314 40.3499 91.6071 40.7514 101.425 40.7514H101.59C111.347 40.7514 120.863 40.354 129.558 39.6016C130.476 36.747 130.972 33.703 130.972 30.5432C130.969 27.375 130.467 24.3236 129.542 21.463ZM129.189 20.4374C120.726 19.7197 111.298 19.3145 101.44 19.3145H101.274C91.4648 19.3145 82.0814 19.7153 73.6543 20.4261C73.7297 20.2193 73.8073 20.0135 73.8871 19.8088C82.3489 18.8714 91.6924 18.3757 101.302 18.3757H101.44C111.088 18.3757 120.464 18.8711 128.953 19.8136C129.034 20.0204 129.113 20.2283 129.189 20.4374ZM72.5624 20.5204C72.6304 20.3245 72.7004 20.1296 72.7722 19.9355C72.13 20.0103 71.4931 20.0877 70.8618 20.1676C70.776 20.3442 70.6924 20.5218 70.6109 20.7002C71.2552 20.6384 71.9058 20.5785 72.5624 20.5204ZM69.4757 20.8117C69.5466 20.6468 69.6194 20.4827 69.6939 20.3192C69.0844 20.4004 68.4805 20.4839 67.8823 20.5698C67.7959 20.714 67.7114 20.8589 67.6286 21.0044C68.2379 20.9384 68.8537 20.8742 69.4757 20.8117ZM67.0608 22.0712C67.7187 21.9977 68.3827 21.9264 69.0525 21.8573C68.0142 24.5967 67.4536 27.5143 67.4536 30.5401C67.4536 33.5519 68.0092 36.4567 69.0386 39.1853C68.371 39.1161 67.7092 39.0446 67.0535 38.971C65.7432 36.3247 65.0307 33.4832 65.0307 30.5277C65.0307 27.5666 65.7458 24.7206 67.0608 22.0712ZM66.4381 21.1363C66.5061 21.0077 66.5755 20.8797 66.6463 20.7521C66.0683 20.8395 65.496 20.9293 64.9296 21.0212C64.8517 21.1272 64.775 21.2336 64.6995 21.3403C65.2726 21.2707 65.8522 21.2027 66.4381 21.1363ZM63.9782 22.4373C64.6155 22.357 65.2594 22.2788 65.9095 22.2028C64.6975 24.8259 64.0415 27.6277 64.0415 30.5371C64.0415 33.4339 64.6919 36.2242 65.8941 38.8378C65.2433 38.7614 64.5987 38.6827 63.9607 38.6019C62.4309 36.082 61.5966 33.365 61.5966 30.5338C61.5966 27.6914 62.4373 24.9647 63.9782 22.4373ZM63.4195 21.4997C63.4747 21.4147 63.5306 21.33 63.5873 21.2454C63.0987 21.3293 62.6149 21.4149 62.136 21.5023C62.0783 21.565 62.0212 21.6278 61.9647 21.6908C62.4445 21.626 62.9295 21.5623 63.4195 21.4997ZM61.0181 22.8324C61.592 22.7513 62.172 22.6721 62.7578 22.5947C61.3617 25.0871 60.6042 27.7573 60.6042 30.5338C60.6042 33.2987 61.3558 35.9591 62.7415 38.4438C62.1545 38.3658 61.5733 38.2861 60.9983 38.2044C59.15 35.7709 58.1845 33.1784 58.1845 30.5303C58.1845 27.8719 59.1568 25.2716 61.0181 22.8324ZM60.4801 21.8974C60.5061 21.8647 60.5322 21.8322 60.5584 21.7996C60.1677 21.8757 59.7805 21.953 59.3969 22.0315C59.3856 22.0413 59.3744 22.0511 59.3632 22.061C59.732 22.0057 60.1043 21.9512 60.4801 21.8974ZM58.0989 23.2688C58.6091 23.1882 59.1249 23.109 59.6459 23.0314C58.0564 25.3803 57.1921 27.9038 57.1921 30.5303C57.1921 33.1469 58.0504 35.6621 59.6292 38.0048C59.1004 37.9256 58.5771 37.8448 58.0596 37.7625C55.9249 35.5101 54.7443 33.0692 54.7443 30.5365C54.7443 27.9875 55.9393 25.5322 58.0989 23.2688ZM55.134 23.7665C55.4114 23.7171 55.6926 23.6678 55.9776 23.6187C56.1552 23.5882 56.3335 23.5579 56.5126 23.5277C54.7256 25.7189 53.752 28.0785 53.752 30.5365C53.752 32.978 54.7129 35.3231 56.4778 37.5027C56.3293 37.4776 56.1814 37.4523 56.0339 37.4269C55.7193 37.3726 55.4093 37.3182 55.1039 37.2635C52.6583 35.171 51.3007 32.8933 51.3007 30.5277C51.3007 28.1515 52.6692 25.8651 55.134 23.7665ZM52.4655 24.2706C52.7506 24.2135 53.0403 24.1566 53.3349 24.0999C51.3785 26.1072 50.3115 28.2717 50.3115 30.5277C50.3115 32.7732 51.3697 34.9289 53.3107 36.9296C53.0127 36.8719 52.7196 36.8141 52.4314 36.756C49.5226 34.8179 47.8886 32.7047 47.8886 30.5246C47.8886 28.3345 49.5354 26.2136 52.4655 24.2706ZM49.8696 24.824C49.9571 24.8042 50.045 24.7843 50.1336 24.7645C48.0054 26.5869 46.8962 28.5247 46.8962 30.5121C46.8962 32.5008 48.0081 34.4422 50.1417 36.2687C50.0169 36.2407 49.8932 36.2126 49.7706 36.1844C46.3302 34.3619 44.4608 32.4155 44.4608 30.5306C44.4608 28.6263 46.3663 26.6606 49.8696 24.824ZM42.358 27.0053C38.9902 28.3065 37.6053 29.5448 37.6053 30.5056C37.6053 31.4596 38.9751 32.6942 42.3014 33.9934C40.8303 32.8827 40.0408 31.7177 40.0408 30.5217C40.0408 29.309 40.8506 28.1289 42.358 27.0053ZM59.3266 38.9801C59.3395 38.9914 59.3524 39.0027 59.3652 39.014C59.7567 39.0947 60.1519 39.1741 60.5508 39.2523C60.5228 39.2175 60.495 39.1828 60.4674 39.148C60.0835 39.0927 59.7033 39.0368 59.3266 38.9801ZM61.9486 39.355C62.0072 39.4205 62.0663 39.4858 62.1262 39.551C62.6054 39.6389 63.0896 39.7251 63.5785 39.8095C63.5202 39.7224 63.4626 39.635 63.4059 39.5474C62.9151 39.4844 62.4293 39.4203 61.9486 39.355ZM64.6851 39.7074C64.7623 39.817 64.8408 39.9262 64.9206 40.0349C65.4869 40.1274 66.0591 40.2176 66.6371 40.3055C66.5649 40.175 66.4941 40.0441 66.4247 39.9127C65.8385 39.8459 65.2586 39.7774 64.6851 39.7074ZM67.6248 40.0464C67.7092 40.195 67.7955 40.3429 67.8837 40.4901C68.4785 40.576 69.0789 40.6594 69.6848 40.7404C69.6092 40.5741 69.5354 40.407 69.4633 40.2392C68.8443 40.1766 68.2314 40.1124 67.6248 40.0464ZM70.5988 40.3514C70.6814 40.5328 70.7662 40.7133 70.8532 40.8928C71.4855 40.9732 72.1234 41.051 72.7667 41.1262C72.6939 40.9293 72.6231 40.7315 72.5543 40.5326C71.8963 40.4741 71.2444 40.4137 70.5988 40.3514ZM72.2157 39.4944C71.3487 36.6637 70.8819 33.6579 70.8813 30.5432C70.8808 27.4134 71.3511 24.3934 72.2254 21.5503C71.5322 21.613 70.8444 21.678 70.1624 21.7453C69.0513 24.5089 68.4491 27.4666 68.4491 30.5401C68.4491 33.5997 69.0463 36.5448 70.1484 39.2979C70.8318 39.3657 71.521 39.4312 72.2157 39.4944ZM73.6423 40.6272C73.7184 40.8369 73.7968 41.0455 73.8775 41.253C82.3799 42.1987 91.7741 42.6957 101.44 42.6957H101.562C111.169 42.6957 120.509 42.2004 128.967 41.2636C129.048 41.058 129.125 40.8513 129.201 40.6435C120.777 41.3531 111.398 41.7531 101.594 41.7531H101.428C91.5553 41.7531 82.1145 41.3467 73.6423 40.6272ZM130.274 40.551C130.205 40.748 130.135 40.9441 130.063 41.1392C130.71 41.0639 131.352 40.986 131.988 40.9054C132.075 40.7279 132.159 40.5495 132.24 40.3701C131.591 40.4323 130.936 40.4926 130.274 40.551ZM133.37 40.2594C133.299 40.4252 133.225 40.5903 133.151 40.7546C133.764 40.673 134.373 40.5889 134.975 40.5023C135.062 40.3575 135.147 40.2119 135.23 40.0657C134.616 40.132 133.996 40.1966 133.37 40.2594ZM136.435 39.9323C136.367 40.0612 136.297 40.1898 136.226 40.3178C136.798 40.2313 137.364 40.1425 137.924 40.0516C138.002 39.945 138.08 39.8379 138.155 39.7305C137.588 39.7993 137.015 39.8666 136.435 39.9323ZM139.437 39.5712C139.381 39.6567 139.325 39.7421 139.268 39.8272C139.762 39.7423 140.252 39.6557 140.736 39.5673C140.794 39.5043 140.851 39.4412 140.908 39.378C140.423 39.4436 139.932 39.508 139.437 39.5712ZM141.867 38.2184C143.715 35.7872 144.68 33.197 144.68 30.549C144.68 27.8913 143.708 25.2896 141.847 22.8481C141.266 22.7657 140.679 22.6853 140.086 22.6067C141.485 25.1008 142.245 27.7724 142.245 30.5494C142.245 33.3148 141.493 35.9752 140.107 38.4595C140.7 38.381 141.286 38.3007 141.867 38.2184ZM142.405 39.1699C142.379 39.2024 142.353 39.2349 142.327 39.2673C142.713 39.192 143.095 39.1156 143.475 39.038C143.486 39.0281 143.497 39.0181 143.509 39.0082C143.144 39.0628 142.776 39.1167 142.405 39.1699ZM63.4241 40.8497C63.391 40.8191 63.3581 40.7886 63.3253 40.758C63.6766 40.8187 64.0309 40.8787 64.3882 40.9378C64.4286 40.9906 64.4694 41.0432 64.5105 41.0958C64.144 41.0148 63.7818 40.9327 63.4241 40.8497ZM66.0291 41.4203C65.956 41.3361 65.8837 41.2515 65.8122 41.1667C66.295 41.242 66.7828 41.3159 67.2756 41.3883C67.3431 41.4962 67.4117 41.6036 67.4812 41.7106C66.9904 41.6157 66.5064 41.5189 66.0291 41.4203ZM68.8483 41.9673C68.756 41.837 68.6652 41.706 68.5759 41.5744C69.1092 41.6487 69.6479 41.7212 70.1918 41.792C70.2691 41.9437 70.348 42.0948 70.4284 42.2451C69.8948 42.1546 69.3681 42.062 68.8483 41.9673ZM71.6764 42.4509C71.5802 42.2831 71.4859 42.1143 71.3937 41.9446C71.9797 42.0171 72.5715 42.0876 73.1688 42.156C73.2462 42.3441 73.3254 42.5312 73.4065 42.7174C72.8225 42.631 72.2457 42.5421 71.6764 42.4509ZM101.428 43.6881C91.7625 43.6881 82.5326 43.1793 74.3007 42.2825C74.3883 42.4845 74.478 42.6853 74.5699 42.8849C82.3968 43.9809 91.4666 44.6362 101.434 44.6362H101.522C111.443 44.6362 120.475 43.986 128.273 42.8977C128.365 42.6977 128.456 42.4965 128.543 42.2941C120.348 43.1838 111.165 43.6881 101.55 43.6881H101.428ZM129.419 42.7334C129.501 42.5465 129.581 42.3587 129.659 42.17C130.261 42.1013 130.857 42.0305 131.447 41.9577C131.355 42.128 131.26 42.2973 131.163 42.4657C130.589 42.5574 130.008 42.6466 129.419 42.7334ZM132.405 42.2615C132.486 42.1105 132.565 41.9588 132.643 41.8064C133.195 41.7348 133.742 41.6613 134.283 41.5861C134.194 41.7181 134.103 41.8494 134.01 41.9802C133.482 42.0761 132.947 42.1699 132.405 42.2615ZM135.381 41.7232C135.451 41.6158 135.52 41.508 135.587 41.3999C136.074 41.3284 136.556 41.2556 137.034 41.1813C136.986 41.2372 136.939 41.2931 136.891 41.3489C136.865 41.3783 136.84 41.4078 136.814 41.4372C136.343 41.5343 135.865 41.6296 135.381 41.7232ZM138.335 41.1129C138.377 41.0595 138.419 41.0061 138.46 40.9525C138.823 40.8925 139.183 40.8317 139.541 40.77C139.507 40.801 139.474 40.832 139.44 40.863C139.076 40.9474 138.708 41.0307 138.335 41.1129ZM161.829 30.5498C161.829 32.1036 159.923 33.7234 156.446 35.2509C158.377 33.7478 159.381 32.1638 159.381 30.5463C159.381 28.9261 158.367 27.3406 156.423 25.836C159.914 27.3692 161.829 28.9945 161.829 30.5498ZM139.447 20.2341L139.523 20.3042C139.164 20.2422 138.802 20.1809 138.436 20.1205C138.4 20.0737 138.364 20.027 138.328 19.9804C138.705 20.0639 139.079 20.1484 139.447 20.2341ZM136.82 19.6584C136.887 19.7364 136.954 19.8146 137.021 19.8931C136.545 19.8189 136.064 19.7461 135.579 19.6747C135.515 19.5733 135.451 19.4723 135.385 19.3715C135.87 19.4654 136.348 19.561 136.82 19.6584ZM134.013 19.1137C134.1 19.2378 134.187 19.3625 134.272 19.4877C133.732 19.4125 133.187 19.339 132.636 19.2674C132.561 19.1215 132.485 18.9763 132.408 18.8317C132.95 18.9236 133.485 19.0176 134.013 19.1137ZM131.169 18.6276C131.262 18.7895 131.353 18.9523 131.442 19.1159C130.856 19.0434 130.264 18.9729 129.666 18.9045C129.591 18.7223 129.514 18.541 129.435 18.3607C130.021 18.4472 130.599 18.5362 131.169 18.6276ZM128.263 18.192C128.353 18.3859 128.44 18.581 128.525 18.7771C120.301 17.8819 111.082 17.374 101.428 17.374H101.302C91.6905 17.374 82.5102 17.8776 74.3171 18.7663C74.4021 18.5708 74.4892 18.3764 74.5783 18.1831C82.3788 17.0943 91.4125 16.4439 101.337 16.4439H101.421C111.379 16.4439 120.441 17.0979 128.263 18.192ZM73.4103 18.3508C73.3319 18.5306 73.2553 18.7113 73.1803 18.8928C72.5848 18.9608 71.9947 19.0308 71.4103 19.1028C71.4992 18.9397 71.59 18.7776 71.6826 18.6162C72.2511 18.5253 72.8271 18.4368 73.4103 18.3508ZM70.4354 18.8214C70.3584 18.9652 70.2828 19.1097 70.2085 19.2547C69.6615 19.3257 69.1197 19.3984 68.5833 19.4729C68.668 19.3484 68.754 19.2244 68.8414 19.101C69.3657 19.0057 69.897 18.9124 70.4354 18.8214ZM67.4869 19.3548C67.4217 19.4551 67.3574 19.5558 67.2939 19.6568C66.802 19.7288 66.315 19.8024 65.8331 19.8773C65.8987 19.7997 65.9651 19.7222 66.0321 19.6451C66.5103 19.5465 66.9953 19.4497 67.4869 19.3548ZM64.5136 19.9689C64.4779 20.0145 64.4426 20.0601 64.4074 20.1058C64.052 20.1644 63.6995 20.2239 63.35 20.2841L63.4242 20.2153C63.783 20.1322 64.1461 20.05 64.5136 19.9689ZM43.4685 30.5369C43.4685 28.9163 44.4754 27.3294 46.414 25.8237C42.9452 27.3503 41.0456 28.9689 41.0456 30.5217C41.0456 32.0628 42.9251 33.6726 46.3562 35.1934C44.4572 33.7047 43.4685 32.1375 43.4685 30.5369ZM135.566 18.4155C135.229 18.3292 134.889 18.2441 134.546 18.1602L134.598 18.232C134.923 18.2922 135.246 18.3534 135.566 18.4155ZM133.153 17.9723C133.107 17.9144 133.06 17.8567 133.013 17.799C132.562 17.6963 132.105 17.5956 131.644 17.497C131.694 17.5786 131.743 17.6605 131.792 17.7426C132.249 17.8174 132.703 17.894 133.153 17.9723ZM130.509 17.5386C130.441 17.4315 130.371 17.3249 130.301 17.2187C129.794 17.1168 129.281 17.0174 128.763 16.9206C128.827 17.0487 128.89 17.1774 128.952 17.3066C129.475 17.3817 129.994 17.459 130.509 17.5386ZM127.751 17.1388C119.651 16.0392 110.677 15.4609 101.428 15.4609H101.337C92.1097 15.4609 83.1686 16.0367 75.0889 17.1316C75.1658 16.9808 75.244 16.8308 75.3234 16.6816C83.1299 15.3103 92.0576 14.5127 101.359 14.5127H101.421C110.746 14.5127 119.696 15.3157 127.52 16.6948C127.598 16.8421 127.675 16.9901 127.751 17.1388ZM73.893 17.2983C73.9563 17.1669 74.0206 17.0359 74.0857 16.9055C73.5704 17.0015 73.0603 17.1001 72.5556 17.201C72.4837 17.3099 72.4125 17.4192 72.3423 17.5289C72.8553 17.4499 73.3722 17.373 73.893 17.2983ZM71.0507 17.7338C71.1013 17.649 71.1524 17.5645 71.204 17.4802C70.747 17.5775 70.2948 17.6769 69.8476 17.7783C69.798 17.8392 69.7487 17.9002 69.6998 17.9613C70.1468 17.8838 70.5971 17.8079 71.0507 17.7338ZM68.2731 18.2169L68.3344 18.1336C67.942 18.229 67.5538 18.326 67.17 18.4245L67.1683 18.4262C67.534 18.3552 67.9023 18.2855 68.2731 18.2169ZM67.352 42.6796C67.6716 42.7611 67.9942 42.8416 68.3197 42.921L68.2698 42.8531C67.9621 42.7961 67.6562 42.7383 67.352 42.6796ZM69.7108 43.1116C69.756 43.1681 69.8015 43.2244 69.8473 43.2806C70.29 43.3813 70.7377 43.48 71.1901 43.5767C71.1414 43.4969 71.0931 43.4169 71.0453 43.3366C70.5972 43.2633 70.1523 43.1883 69.7108 43.1116ZM72.3378 43.5421C72.4052 43.6474 72.4734 43.7523 72.5424 43.8569C73.0486 43.9585 73.5602 44.0577 74.0771 44.1543C74.014 44.0278 73.9517 43.9008 73.8904 43.7733C73.369 43.6984 72.8514 43.6214 72.3378 43.5421ZM75.0811 43.9396C75.156 44.0865 75.232 44.2326 75.3092 44.378C83.1357 45.7581 92.09 46.5616 101.418 46.5616H101.481C110.789 46.5616 119.723 45.7624 127.534 44.3889C127.611 44.2434 127.688 44.0972 127.763 43.9504C119.683 45.0444 110.743 45.6191 101.515 45.6191H101.428C92.1682 45.6191 83.1866 45.04 75.0811 43.9396ZM128.935 43.7871C128.873 43.9149 128.811 44.0423 128.747 44.1692C129.269 44.072 129.786 43.9721 130.298 43.8697C130.367 43.7649 130.435 43.6598 130.503 43.5542C129.984 43.6341 129.462 43.7117 128.935 43.7871ZM131.789 43.3503C131.741 43.4309 131.693 43.5113 131.644 43.5915C132.105 43.4931 132.562 43.3926 133.014 43.2901L133.071 43.2197C133.097 43.187 133.124 43.1541 133.15 43.1213C132.7 43.1994 132.246 43.2757 131.789 43.3503ZM134.594 42.8627L134.544 42.9302C134.868 42.8513 135.189 42.7714 135.506 42.6904C135.204 42.7487 134.9 42.8061 134.594 42.8627ZM71.1086 44.718L71.0582 44.6644L71.0007 44.6029C71.3281 44.673 71.6574 44.7419 71.9888 44.8096C72.0302 44.8699 72.0719 44.9301 72.1138 44.9902C71.7757 44.9009 71.4406 44.8102 71.1086 44.718ZM73.6201 45.3732C73.5482 45.2791 73.477 45.1845 73.4064 45.0895C73.8329 45.1709 74.2624 45.2504 74.6949 45.3279C74.7592 45.4438 74.8242 45.5593 74.8899 45.6743C74.4624 45.5761 74.0391 45.4758 73.6201 45.3732ZM101.428 47.5539C92.4474 47.5539 83.755 46.8597 75.9651 45.5486C76.0484 45.6895 76.1327 45.8296 76.2182 45.969C83.6717 47.5668 92.305 48.493 101.412 48.493H101.462C110.559 48.493 119.182 47.5695 126.627 45.9751C126.71 45.8394 126.793 45.7029 126.874 45.5658C119.105 46.8661 110.441 47.5539 101.49 47.5539H101.428ZM127.934 45.6855C127.998 45.5741 128.061 45.4622 128.124 45.3499C128.561 45.272 128.996 45.1921 129.427 45.1102C129.36 45.2006 129.292 45.2907 129.223 45.3804C128.798 45.4844 128.368 45.5861 127.934 45.6855ZM130.723 44.9994C130.762 44.9441 130.8 44.8886 130.838 44.8331C131.178 44.7641 131.516 44.6938 131.851 44.6223C131.821 44.6544 131.791 44.6864 131.761 44.7184C131.418 44.8136 131.072 44.9073 130.723 44.9994ZM131.756 16.3646L131.843 16.4575C131.508 16.3859 131.171 16.3155 130.832 16.2464C130.807 16.2094 130.781 16.1726 130.756 16.1357L130.72 16.0837C131.068 16.1758 131.414 16.2695 131.756 16.3646ZM129.224 15.7032C129.291 15.7913 129.358 15.8798 129.424 15.9685C128.998 15.8872 128.568 15.8078 128.136 15.7304C128.075 15.6202 128.013 15.5104 127.95 15.4011C128.379 15.4995 128.804 15.6003 129.224 15.7032ZM126.608 15.1032C126.69 15.2373 126.772 15.3721 126.852 15.5076C119.072 14.2001 110.393 13.5078 101.428 13.5078H101.359C92.4141 13.5078 83.7545 14.1971 75.9899 15.496C76.0695 15.3618 76.1501 15.2282 76.2317 15.0954C83.6799 13.5033 92.3072 12.5812 101.412 12.5812H101.425C110.529 12.5812 119.158 13.5065 126.608 15.1032ZM74.8969 15.3907C74.835 15.4989 74.7737 15.6075 74.7131 15.7165C74.2837 15.7931 73.8572 15.8715 73.4337 15.9518C73.499 15.8642 73.5649 15.7769 73.6314 15.6899C74.049 15.588 74.4709 15.4882 74.8969 15.3907ZM72.1262 16.0716C72.0894 16.1243 72.0528 16.1771 72.0164 16.2299C71.6821 16.2978 71.3499 16.3668 71.0197 16.4371L71.1033 16.3481C71.441 16.2544 71.782 16.1623 72.1262 16.0716ZM128.177 14.4133L128.117 14.3441C127.792 14.2452 127.463 14.1479 127.132 14.0524C127.164 14.1017 127.195 14.151 127.226 14.2005C127.546 14.2702 127.862 14.3411 128.177 14.4133ZM125.832 13.9068C125.771 13.8181 125.71 13.7298 125.649 13.6418C118.537 11.7513 110.218 10.6492 101.425 10.6492V10.6554H101.428C92.624 10.6554 84.2983 11.7561 77.1826 13.6451C77.1275 13.7239 77.0728 13.803 77.0185 13.8824C84.2592 12.42 92.5551 11.5889 101.365 11.5889C110.215 11.5889 118.555 12.4294 125.832 13.9068ZM125.842 47.1868C118.596 48.6523 110.289 49.4854 101.462 49.4854H101.412C92.5774 49.4854 84.2588 48.649 77.0012 47.1786C77.0595 47.264 77.1182 47.349 77.1773 47.4337C84.2958 49.3267 92.6244 50.4301 101.428 50.4301L101.462 50.9279V50.4301C110.247 50.4301 118.558 49.3314 125.664 47.4455C125.724 47.3596 125.783 47.2734 125.842 47.1868ZM127.199 46.9023C127.168 46.9507 127.137 46.9989 127.106 47.0471C127.442 46.9506 127.775 46.8524 128.105 46.7523L128.161 46.6882C127.842 46.7608 127.522 46.8322 127.199 46.9023ZM74.6801 46.6785C74.9919 46.7498 75.306 46.8199 75.6222 46.8888C75.6517 46.9352 75.6813 46.9815 75.711 47.0278C75.3816 46.9329 75.0551 46.8363 74.7315 46.738L74.6801 46.6785ZM74.6959 14.3813C75.0058 14.3107 75.3179 14.2412 75.6321 14.1729L75.661 14.1276L75.7092 14.0524C75.38 14.1471 75.0536 14.2436 74.7302 14.3417L74.6959 14.3813ZM101.428 51.4225C92.9837 51.4225 85.0465 50.4563 78.1613 48.7631C78.2016 48.8145 78.2421 48.8657 78.2827 48.9168C85.1574 51.1597 93.1208 52.3616 101.425 52.3616L101.446 52.8562V52.3616C109.736 52.3616 117.686 51.1641 124.556 48.9296C124.598 48.8777 124.639 48.8258 124.679 48.7737C117.806 50.4605 109.886 51.4225 101.462 51.4225H101.428ZM101.393 9.66309C92.9667 9.66309 85.0437 10.626 78.1684 12.3143C78.2102 12.261 78.2522 12.2078 78.2944 12.1548C85.1677 9.9173 93.1252 8.71847 101.432 8.71772C109.715 8.71847 117.659 9.9103 124.528 12.1426C124.577 12.2043 124.626 12.2661 124.675 12.3282C117.781 10.6315 109.837 9.66309 101.393 9.66309ZM126.231 12.7282L126.263 12.7369L126.228 12.7242L126.231 12.7282ZM123.344 50.3583L123.33 50.3727C117.046 52.8484 109.52 54.2903 101.44 54.2903H101.425C93.3342 54.2903 85.7999 52.8444 79.5098 50.363L79.4888 50.3397C85.9617 52.255 93.4575 53.3508 101.44 53.3508H101.462C109.414 53.3508 116.886 52.2622 123.344 50.3583ZM123.324 10.7259C116.858 8.81914 109.378 7.72852 101.418 7.72852C93.4517 7.72852 85.9703 8.81899 79.5073 10.7262L79.5256 10.706C85.8118 8.23116 93.3399 6.78978 101.425 6.78978C109.497 6.78978 117.019 8.2302 123.303 10.7034L123.324 10.7259ZM101.425 55.2826C94.6068 55.2826 88.1739 54.2641 82.5183 52.4648C88.0343 54.8433 94.5117 56.2157 101.434 56.2157C108.368 56.2157 114.856 54.84 120.377 52.4554C114.715 54.2607 108.27 55.2826 101.44 55.2826H101.425ZM101.409 5.80371C94.5588 5.80371 88.0977 6.83074 82.4237 8.64456C87.9586 6.24471 94.4687 4.85917 101.429 4.85854C108.422 4.85917 114.96 6.26022 120.512 8.68417C114.807 6.84591 108.304 5.80371 101.409 5.80371ZM117.678 54.5639C112.879 56.8498 107.332 58.1564 101.428 58.1564V59.1487C106.328 59.1487 110.989 58.2701 115.2 56.6901C111.087 58.8616 106.399 60.0909 101.425 60.0909C96.4501 60.0909 91.7628 58.8617 87.6497 56.6904C91.862 58.2702 96.5237 59.1487 101.425 59.1487V58.1564C95.5003 58.1564 89.9361 56.8413 85.1262 54.5415C90.0572 56.2534 95.5911 57.2143 101.434 57.2143C107.251 57.2143 112.762 56.2618 117.678 54.5639ZM117.692 6.52528C112.77 4.82198 107.25 3.86621 101.425 3.86621C95.5941 3.86621 90.0711 4.82314 85.1482 6.52853C89.9521 4.2369 95.5079 2.9269 101.425 2.9269C107.338 2.9269 112.89 4.2357 117.692 6.52528ZM101.418 1.93457C96.5328 1.93457 91.885 2.80768 87.6833 4.37836C91.7883 2.21805 96.4636 0.995464 101.425 0.995464C106.365 1.00115 111.022 2.21756 115.114 4.36401C110.923 2.80238 106.288 1.93457 101.418 1.93457Z" fill="url(#paint0_linear_9920_182)"/>
</g>
<defs>
<linearGradient id="paint0_linear_9920_182" x1="36.6287" y1="30.5338" x2="166.239" y2="30.5338" gradientUnits="userSpaceOnUse">
<stop stop-color="#FDA9FF"/>
<stop offset="1" stop-color="#039CFF"/>
</linearGradient>
<clipPath id="clip0_9920_182">
<rect width="203" height="90" fill="white"/>
</clipPath>
</defs>
</svg>
