<svg width="26" height="25" viewBox="0 0 26 25" fill="none" xmlns="http://www.w3.org/2000/svg">
<g id="uuid-a2ff3a2e-b980-43b0-bbdf-4bf5fa1108a1">
<path id="Vector" d="M13.6546 11.3C13.7146 11.48 13.8346 11.73 13.9246 11.86L13.9646 11.83H13.9746L13.9246 11.86L14.1046 12.12L14.2246 12.29V11.15V11.13V11.11V11.09V11.07V11.05V11.03V11.01V10.99V10.97V10.95V10.93V10.91V10.89V10.87V10.85V10.83V10.81V10.79V10.77V10.75V10.73V10.71V10.69V10.67V10.65V10.63V10.61V10.59V10.57V10.55V10.53V10.51V10.49V10.47V10.45V10.43V10.41V10.39V10.37V10.35V10.33V10.31V10.29V10.27V10.25V10.23V10.21V10.19V10.17V10.15V10.13V10.11V10.09V10.07V10.05V10.03V10.01V9.99V9.97V9.95V9.93V9.91V9.89V9.87V9.85V9.83V9.81V9.79V9.77V9.75V9.73V9.71V9.69V9.67V9.65V9.63V9.61V9.59V9.57V9.55V9.53V9.51V9.49V9.47V9.45V9.43V9.41V9.39V9.37V9.35V9.33V9.31V9.29V9.27V9.25V9.23V9.21V9.19V9.17V9.15V9.13V9.11V9.09V9.07V9.05V9.03V9.01V8.99V8.97V8.95V8.93V8.91V8.89V8.87V8.85V8.83V8.81V8.79V8.77V8.75V8.73V8.71V8.69V8.67V8.65V8.63V8.61V8.59V8.57V8.55V8.53V8.51V8.49V8.47V8.45V8.43V8.41V8.39V8.37V8.35V8.33V8.31V8.29V8.27V8.25V8.23V8.21V8.19V8.17V8.15V8.13V8.11V8.09V8.07V8.05V8.03V8.01V7.99V7.97V7.95C14.2246 7.95 14.2246 7.94 14.1546 7.94H14.2246V7.92V7.9V7.88V7.86V7.84V7.82V7.8V7.78V7.76V7.74V7.72V7.7V7.68V7.66V7.64V7.62V7.6V7.58V7.56V7.54V7.52V7.5V7.48V7.46V7.44V7.42V7.4V7.38V7.36V7.34V7.32V7.3V7.28V7.26V7.24V7.22V7.2V7.18V7.16V7.14V7.12V7.1V7.08V7.06V7.04V7.02V7V6.98V6.96V6.94V6.92V6.9V6.88V6.86V6.84V6.82V6.8V6.78V6.76V6.74V6.72V6.7V6.68V6.66V6.64V6.62V6.6V6.58V6.56V6.54V6.52V6.5V6.48V6.46V6.44V6.42V6.4V6.38V6.36V6.34V6.32V6.3V6.28V6.26V6.24V6.22V6.2V6.18V6.16V6.14V6.12V6.1V6.08V6.06V6.04V6.02V6V5.98V5.96V5.94V5.92V5.9V5.88V5.86V5.84V5.82V5.8V5.78V5.76V5.74V5.72V5.7V5.68V5.66V5.64V5.62V5.6V5.58V5.56V5.54V5.52V5.5V5.48V5.46V5.44V5.42V5.4V5.38V5.36V5.34V5.32V5.3V5.28V5.26V5.24V5.22V5.2V5.18V5.16V5.14V5.12V5.1V5.08V5.06V5.04V5.02V5V4.98V4.96V4.94V4.92V4.9V4.88V4.86V4.84V4.82V4.8V4.78V4.76V4.74V4.72V4.7V4.68V4.66V4.64V4.62V4.6V4.58V4.56V4.54V4.52V4.5V4.48V4.46V4.44V4.42V4.4V4.38V4.36V4.34V4.32V4.3V4.28V4.26V4.24V4.22V4.2V4.18V4.16V4.14V4.12V4.1V4.08V4.06V4.04V4.02V4V3.98V3.96V3.94V3.92V3.9V3.88V3.86V3.84V3.82V3.8V3.78V3.76V3.74V3.72V3.7V3.68V3.66V3.64V3.62V3.6V3.58V3.56V3.54V3.52V3.5V3.48V3.46V3.44V3.42V3.4V3.38V3.36V3.34V3.32V3.3V3.28V3.26V3.24V3.22V3.2V3.18V3.16V3.14V3.12V3.1V3.08V3.06V3.04V3.02V3V2.98V2.96V2.94V2.92V2.9V2.88V2.86V2.84V2.82V2.8V2.78V2.76V2.74V2.72V2.7V2.68V2.66V2.64V2.62V2.6V2.58V2.56V2.54V2.52V2.5V2.48V2.46C14.2246 2.46 14.2246 2.46 14.2346 2.46C14.3146 2.54 14.4246 2.65 14.5646 2.79C14.8446 3.06 15.2246 3.44 15.6346 3.85C16.4546 4.66 17.3946 5.6 17.8746 6.09L18.4846 6.71L18.5046 6.73H18.4846L18.5946 6.84L20.3546 8.64C20.8346 9.13 21.2746 9.58 21.5846 9.91C21.7446 10.07 21.8646 10.2 21.9446 10.29C21.9446 10.29 21.9546 10.31 21.9646 10.31L22.0746 10.43L23.2946 11.72L23.3146 11.74H23.3446C24.2246 11.74 24.6946 11.74 24.9546 11.73C25.0746 11.73 25.1546 11.72 25.2046 11.7C25.2246 11.7 25.2546 11.68 25.2746 11.66C25.2946 11.64 25.2946 11.61 25.2946 11.59C25.2946 11.42 25.2246 11.27 24.9046 10.91C24.5846 10.55 23.9946 9.95 22.9346 8.89L20.7946 6.75L20.7746 6.73H18.6446H18.5946V6.66V4.55V4.52L18.5746 4.5L16.4246 2.36C15.3446 1.28 14.7446 0.7 14.3846 0.38C14.2046 0.22 14.0746 0.13 13.9746 0.0700001C13.8646 0.0100001 13.7846 0 13.6946 0H13.5846H13.5146V9.58C13.5146 9.69 13.5346 9.8 13.5746 9.9L13.6546 10.09V11.3Z" fill="#81B0FC"/>
<path id="Vector_2" d="M7.67046 6.65002V6.72002H5.52046H5.49046L5.47046 6.74002L3.33046 8.88002C2.27046 9.94002 1.68046 10.53 1.36046 10.9C1.04046 11.26 0.970459 11.41 0.970459 11.58C0.970459 11.6 0.970459 11.63 0.990459 11.65C1.01046 11.67 1.03046 11.68 1.06046 11.69C1.11046 11.7 1.19046 11.71 1.31046 11.72C1.56046 11.73 2.04046 11.73 2.92046 11.73H2.95046L2.97046 11.71L4.19046 10.42L4.30046 10.3C4.30046 10.3 4.31046 10.29 4.32046 10.28C4.40046 10.19 4.53046 10.06 4.68046 9.90002C4.99046 9.58002 5.43046 9.13002 5.91046 8.63002L7.67046 6.83002L7.78046 6.72002H7.76046L7.78046 6.70002L7.73046 6.65002H7.67046Z" fill="#81B0FC"/>
<path id="Vector_3" d="M7.69041 4.5L7.67041 4.51V4.54H7.74041L7.69041 4.5Z" fill="#81B0FC"/>
<path id="Vector_4" d="M5.90035 15.3L5.86035 15.35L5.90035 15.3Z" fill="#81B0FC"/>
<path id="Vector_5" d="M12.6804 0.07V0H12.5704C12.4804 0 12.4004 0.01 12.2904 0.07C12.1804 0.12 12.0604 0.22 11.8804 0.38C11.5204 0.7 10.9204 1.28 9.84042 2.36L7.69042 4.5L7.74042 4.55H7.68042V6.66H7.75042L7.80042 6.71L8.41042 6.09C8.89042 5.6 9.83042 4.66 10.6504 3.85C11.0604 3.44 11.4404 3.07 11.7204 2.79C11.8604 2.65 11.9704 2.54 12.0504 2.46C12.0504 2.46 12.0504 2.46 12.0604 2.45V2.47V2.49V2.51V2.53V2.55V2.57V2.59V2.61V2.63V2.65V2.67V2.69V2.71V2.73V2.75V2.77V2.79V2.81V2.83V2.85V2.87V2.89V2.91V2.93V2.95V2.97V2.99V3.01V3.03V3.05V3.07V3.09V3.11V3.13V3.15V3.17V3.19V3.21V3.23V3.25V3.27V3.29V3.31V3.33V3.35V3.37V3.39V3.41V3.43V3.45V3.47V3.49V3.51V3.53V3.55V3.57V3.59V3.61V3.63V3.65V3.67V3.69V3.71V3.73V3.75V3.77V3.79V3.81V3.83V3.85V3.87V3.89V3.91V3.93V3.95V3.97V3.99V4.01V4.03V4.05V4.07V4.09V4.11V4.13V4.15V4.17V4.19V4.21V4.23V4.25V4.27V4.29V4.31V4.33V4.35V4.37V4.39V4.41V4.43V4.45V4.47V4.49V4.51V4.53V4.55V4.57V4.59V4.61V4.63V4.65V4.67V4.69V4.71V4.73V4.75V4.77V4.79V4.81V4.83V4.85V4.87V4.89V4.91V4.93V4.95V4.97V4.99V5.01V5.03V5.05V5.07V5.09V5.11V5.13V5.15V5.17V5.19V5.21V5.23V5.25V5.27V5.29V5.31V5.33V5.35V5.37V5.39V5.41V5.43V5.45V5.47V5.49V5.51V5.53V5.55V5.57V5.59V5.61V5.63V5.65V5.67V5.69V5.71V5.73V5.75V5.77V5.79V5.81V5.83V5.85V5.87V5.89V5.91V5.93V5.95V5.97V5.99V6.01V6.03V6.05V6.07V6.09V6.11V6.13V6.15V6.17V6.19V6.21V6.23V6.25V6.27V6.29V6.31V6.33V6.35V6.37V6.39V6.41V6.43V6.45V6.47V6.49V6.51V6.53V6.55V6.57V6.59V6.61V6.63V6.65V6.67V6.69V6.71V6.73V6.75V6.77V6.79V6.81V6.83V6.85V6.87V6.89V6.91V6.93V6.95V6.97V6.99V7.01V7.03V7.05V7.07V7.09V7.11V7.13V7.15V7.17V7.19V7.21V7.23V7.25V7.27V7.29V7.31V7.33V7.35V7.37V7.39V7.41V7.43V7.45V7.47V7.49V7.51V7.53V7.55V7.57V7.59V7.61V7.63V7.65V7.67V7.69V7.71V7.73V7.75V7.77V7.79V7.81V7.83V7.85V7.87V7.89V7.91V7.93V7.95V7.97V7.99V8.01V8.03V8.05V8.07V8.09V8.11V8.13V8.15V8.17V8.19V8.21V8.23V8.25V8.27V8.29V8.31V8.33V8.35V8.37V8.39V8.41V8.43V8.45V8.47V8.49V8.51V8.53V8.55V8.57V8.59V8.61V8.63V8.65V8.67V8.69V8.71V8.73V8.75V8.77V8.79V8.81V8.83V8.85V8.87V8.89V8.91V8.93V8.95V8.97V8.99V9.01V9.03V9.05V9.07V9.09V9.11V9.13V9.15V9.17V9.19V9.21V9.23V9.25V9.27V9.29V9.31V9.33V9.35V9.37V9.39V9.41V9.43V9.45V9.47V9.49V9.51V9.53V9.55V9.57V9.59V9.61V9.63V9.65V9.67V9.69V9.71V9.73V9.75V9.77V9.79V9.81V9.83V9.85V9.87V9.89V9.91V9.93V9.95V9.97V9.99V10.01V10.03V10.05V10.07V10.09V10.11V10.13V10.15V10.17V10.19V10.21V10.23V10.25V10.27V10.29V10.31V10.33V10.35V10.37V10.39V10.41V10.43V10.45V10.47V10.49V10.51V10.53V10.55V10.57V10.59V10.61V10.63V10.65V10.67V10.69V10.71V10.73V10.75V10.77V10.79V10.81V10.83V10.85V10.87V10.89V10.91V10.93V10.95V10.97V10.99V11.01V11.03V11.05V11.07V11.09V11.11V11.13V12.28L12.1804 12.11L12.3604 11.85C12.4504 11.71 12.5704 11.46 12.6304 11.29L12.7104 11.1C12.7504 11 12.7704 10.89 12.7704 10.78V0H12.7004V0.07H12.6804Z" fill="#81B0FC"/>
<path id="Vector_6" d="M12.6405 13.73C12.5805 13.55 12.4605 13.3 12.3705 13.17L12.1705 12.89L12.0505 12.73V12.93V13C12.0505 13 12.0505 13.12 12.0505 13.2C12.0505 13.37 12.0505 13.6 12.0505 13.85C12.0505 14.1 12.0505 14.32 12.0505 14.47V14.62C12.0505 14.62 11.9405 14.58 11.8605 14.55C11.6805 14.49 11.4205 14.39 11.0905 14.27C10.4405 14.04 9.54047 13.71 8.52047 13.34L4.83047 12H4.82047H4.81047H2.93047C2.05047 12 1.58047 12 1.32047 12.01C1.20047 12.01 1.12047 12.02 1.07047 12.04C1.05047 12.04 1.02047 12.06 1.00047 12.08C0.980469 12.1 0.980469 12.13 0.980469 12.15C0.980469 12.32 1.05047 12.47 1.37047 12.83C1.69047 13.19 2.28047 13.79 3.34047 14.85L5.48047 16.99L5.50047 17.01H7.63047H7.78047L7.67047 16.9L5.91047 15.1C5.42047 14.61 4.99047 14.17 4.68047 13.86C4.56047 13.74 4.46047 13.64 4.38047 13.56C4.51047 13.61 4.68047 13.67 4.93047 13.76C5.53047 13.98 6.53047 14.36 8.14047 14.97C9.76047 15.58 10.7405 15.94 11.3305 16.14C11.6205 16.24 11.8105 16.31 11.9305 16.35C11.9805 16.37 12.0205 16.38 12.0505 16.39V16.41V16.43V16.45V16.47V16.49V16.51V16.53V16.55V16.57V16.59V16.61V16.63V16.65V16.67V16.69V16.71V16.73V16.75V16.77V16.79V16.81V16.83V16.85V16.87V16.89V16.91V16.93V16.95V16.97V16.99V17.01V17.03V17.05V17.07V17.09V17.11V17.13V17.15V17.17V17.19V17.21V17.23V17.25V17.27V17.29V17.31V17.33V17.35V17.37V17.39V17.41V17.43V17.45V17.47V17.49V17.51V17.53V17.55V17.57V17.59V17.61V17.63V17.65V17.67V17.69V17.71V17.73V17.75V17.77V17.79V17.81V17.83V17.85V17.87V17.89V17.91V17.93V17.95V17.97V17.99V18.01V18.03V18.05V18.07V18.09V18.11V18.13V18.15V18.17V18.19V18.21V18.23V18.25V18.27V18.29V18.31V18.33V18.35V18.37V18.39V18.41V18.43V18.45V18.47V18.49V18.51V18.53V18.55V18.57V18.59V18.61V18.63V18.65V18.67V18.69V18.71V18.73V18.75V18.77V18.79V18.81V18.83V18.85V18.87V18.89V18.91V18.93V18.95V18.97V18.99V19.01V19.03V19.05V19.07V19.09V19.11V19.13V19.15V19.17V19.19V19.21V19.23V19.25V19.27V19.29V19.31V19.33V19.35V21.71C11.9705 21.63 11.8705 21.52 11.7305 21.38C11.4605 21.11 11.1005 20.73 10.7005 20.33C9.91047 19.52 9.00047 18.59 8.52047 18.1L7.91047 17.48L7.80047 17.37V19.64V19.67L7.82047 19.69L9.97047 21.83C11.0505 22.91 11.6205 23.49 11.9505 23.81C12.1205 23.97 12.2305 24.06 12.3205 24.11C12.4205 24.17 12.5005 24.18 12.5905 24.18H12.7005H12.7705V14.56C12.7705 14.46 12.7505 14.37 12.7205 14.27L12.6605 14.09L12.6405 13.73Z" fill="#81B0FC"/>
<path id="Vector_7" d="M13.8546 13.73C13.9146 13.55 14.0346 13.3 14.1246 13.17L14.3246 12.89L14.4446 12.73V12.93V13C14.4446 13 14.4446 13.12 14.4446 13.2C14.4446 13.37 14.4446 13.6 14.4446 13.85C14.4446 14.1 14.4446 14.32 14.4446 14.47V14.62C14.4446 14.62 14.5546 14.58 14.6346 14.55C14.8146 14.49 15.0746 14.39 15.4046 14.27C16.0546 14.04 16.9546 13.71 17.9746 13.34L21.6646 12H21.6746H21.6846H23.5646C24.4446 12 24.9146 12 25.1746 12.01C25.2946 12.01 25.3746 12.02 25.4246 12.04C25.4446 12.04 25.4746 12.06 25.4946 12.08C25.5146 12.1 25.5146 12.13 25.5146 12.15C25.5146 12.32 25.4446 12.47 25.1246 12.83C24.8046 13.19 24.2146 13.79 23.1546 14.85L21.0146 16.99L20.9946 17.01H18.8646H18.7146L18.8246 16.9L20.5846 15.1C21.0746 14.61 21.5046 14.17 21.8146 13.86C21.9346 13.74 22.0346 13.64 22.1146 13.56C21.9846 13.61 21.8146 13.67 21.5646 13.76C20.9646 13.98 19.9646 14.36 18.3546 14.97C16.7346 15.58 15.7546 15.94 15.1646 16.14C14.8746 16.24 14.6846 16.31 14.5646 16.35C14.5146 16.37 14.4746 16.38 14.4446 16.39V16.41V16.43V16.45V16.47V16.49V16.51V16.53V16.55V16.57V16.59V16.61V16.63V16.65V16.67V16.69V16.71V16.73V16.75V16.77V16.79V16.81V16.83V16.85V16.87V16.89V16.91V16.93V16.95V16.97V16.99V17.01V17.03V17.05V17.07V17.09V17.11V17.13V17.15V17.17V17.19V17.21V17.23V17.25V17.27V17.29V17.31V17.33V17.35V17.37V17.39V17.41V17.43V17.45V17.47V17.49V17.51V17.53V17.55V17.57V17.59V17.61V17.63V17.65V17.67V17.69V17.71V17.73V17.75V17.77V17.79V17.81V17.83V17.85V17.87V17.89V17.91V17.93V17.95V17.97V17.99V18.01V18.03V18.05V18.07V18.09V18.11V18.13V18.15V18.17V18.19V18.21V18.23V18.25V18.27V18.29V18.31V18.33V18.35V18.37V18.39V18.41V18.43V18.45V18.47V18.49V18.51V18.53V18.55V18.57V18.59V18.61V18.63V18.65V18.67V18.69V18.71V18.73V18.75V18.77V18.79V18.81V18.83V18.85V18.87V18.89V18.91V18.93V18.95V18.97V18.99V19.01V19.03V19.05V19.07V19.09V19.11V19.13V19.15V19.17V19.19V19.21V19.23V19.25V19.27V19.29V19.31V19.33V19.35V21.71C14.5246 21.63 14.6246 21.52 14.7646 21.38C15.0346 21.11 15.3946 20.73 15.7946 20.33C16.5846 19.52 17.4946 18.59 17.9746 18.1L18.5846 17.48L18.6946 17.37V19.64V19.67L18.6746 19.69L16.5246 21.83C15.4446 22.91 14.8746 23.49 14.5446 23.81C14.3746 23.97 14.2646 24.06 14.1746 24.11C14.0746 24.17 13.9946 24.18 13.9046 24.18H13.7946H13.7246V14.56C13.7246 14.46 13.7446 14.37 13.7746 14.27L13.8346 14.09L13.8546 13.73Z" fill="#81B0FC"/>
</g>
</svg>
