<svg width="32" height="32" viewBox="0 0 32 32" fill="none" xmlns="http://www.w3.org/2000/svg">
<g id="Frame 1303">
<path id="Union" fill-rule="evenodd" clip-rule="evenodd" d="M15.9977 23.0803C14.1232 23.0803 12.4085 22.3964 11.0894 21.2645C10.8103 21.0943 10.5441 20.91 10.2922 20.7128C10.0032 20.5502 9.72809 20.3755 9.46838 20.1898C9.15032 20.0254 8.84926 19.8493 8.56706 19.6626C8.25399 19.5124 7.95799 19.3528 7.68073 19.1848C7.33283 19.0325 7.00654 18.8707 6.70406 18.7004C6.30331 18.5385 5.93281 18.3662 5.59592 18.1847C5.27138 18.0617 4.97109 17.9341 4.6958 17.8022C4.28634 17.6653 3.91607 17.5223 3.58662 17.3741C3.22005 17.262 2.88523 17.145 2.58525 17.0237C0.955609 16.5903 0 16.0777 0 15.5347C0 14.9907 0.957168 14.4782 2.58875 14.0456C2.89641 13.9214 3.24065 13.8017 3.61812 13.6873C3.9247 13.5508 4.26617 13.4188 4.64134 13.292C4.94198 13.1458 5.27323 13.0047 5.63405 12.8693C5.96809 12.6915 6.33456 12.5227 6.73025 12.364C7.02064 12.2018 7.33273 12.0474 7.66458 11.9016C7.94871 11.7288 8.25267 11.5649 8.57462 11.4109C8.85486 11.2261 9.15364 11.0517 9.46914 10.8888C9.72991 10.7025 10.0062 10.5273 10.2965 10.3641C10.5463 10.1689 10.8103 9.98622 11.0869 9.81744C12.4059 8.6846 14.1212 8 15.9962 8C17.8728 8 19.5893 8.68545 20.909 9.81967C21.1806 9.98558 21.44 10.1649 21.6858 10.3563C21.9906 10.5268 22.2801 10.7107 22.5524 10.9066C22.8509 11.0619 23.1342 11.2276 23.4009 11.4026C23.7404 11.5641 24.0601 11.7365 24.3578 11.9187C24.6889 12.0652 25.0001 12.2203 25.2896 12.3832C25.668 12.5362 26.0194 12.6985 26.3409 12.8691C26.7031 13.0044 27.0357 13.1456 27.3377 13.2919C27.7166 13.4198 28.0615 13.5529 28.371 13.6904C28.7529 13.8062 29.1007 13.9272 29.4113 14.0528C31.043 14.4865 32 14.9996 32 15.5432C32 16.091 31.0304 16.6066 29.3795 17.0407C29.0894 17.1568 28.7672 17.2689 28.4158 17.3765C28.0897 17.5234 27.7232 17.6653 27.3179 17.8012C27.028 17.9406 26.7102 18.0753 26.3654 18.2048C26.0401 18.3786 25.6838 18.5437 25.2996 18.6993C25.0008 18.8678 24.6786 19.028 24.3352 19.1789C24.0473 19.3539 23.7391 19.5197 23.4124 19.6754C23.1374 19.8564 22.8447 20.0274 22.5358 20.1872C22.2688 20.3783 21.9855 20.5578 21.6875 20.7245C21.4345 20.9217 21.1669 21.106 20.8865 21.2761C19.5703 22.3994 17.8633 23.0782 15.9977 23.0803ZM27.4257 17.2063C27.3572 17.2185 27.2878 17.2307 27.2175 17.2428C27.1768 17.2498 27.1359 17.2567 27.0949 17.2637C27.531 16.7255 27.7685 16.1463 27.7685 15.5431C27.7685 14.9364 27.5274 14.3537 27.0852 13.8126C27.1251 13.8193 27.1648 13.826 27.2043 13.8329C27.2766 13.8453 27.3478 13.8578 27.4181 13.8704C28.0275 14.3892 28.3659 14.9545 28.3659 15.5417C28.3659 16.1267 28.0302 16.6895 27.4257 17.2063ZM28.0918 17.0804C28.019 17.095 27.945 17.1095 27.8697 17.124C28.3494 16.6298 28.6109 16.097 28.6109 15.5417C28.6109 14.9841 28.3458 14.4489 27.86 13.9524C27.9339 13.9667 28.0065 13.981 28.078 13.9954C28.8046 14.4763 29.213 15.0011 29.213 15.5425C29.213 16.0808 28.8097 16.6023 28.0918 17.0804ZM28.7505 16.9395C28.7219 16.946 28.693 16.9525 28.6639 16.9591C29.1875 16.5098 29.4603 16.0323 29.4603 15.5425C29.4603 15.0504 29.1845 14.57 28.6554 14.1181C28.6806 14.1238 28.7057 14.1295 28.7306 14.1352C29.5938 14.5884 30.0632 15.0731 30.0632 15.5424C30.0632 16.0085 29.601 16.4894 28.7505 16.9395ZM30.5861 16.4042C31.4127 16.0838 31.7527 15.779 31.7527 15.5424C31.7527 15.3065 31.4135 15.0008 30.5894 14.6792C30.9561 14.9546 31.1529 15.2436 31.1529 15.5402C31.1529 15.8381 30.9549 16.128 30.5861 16.4042ZM26.6944 13.7486C27.2276 14.3077 27.5227 14.9141 27.5227 15.5431C27.5227 16.1688 27.2311 16.7716 26.7038 17.3277C26.5786 17.3476 26.4521 17.3671 26.3243 17.3862C26.7142 16.8081 26.9261 16.1874 26.9261 15.5416C26.9261 14.8936 26.7124 14.2708 26.3196 13.6908C26.4458 13.7097 26.5708 13.729 26.6944 13.7486ZM26.3839 13.4515C26.3806 13.4487 26.3773 13.4458 26.3741 13.443C26.2816 13.424 26.1883 13.4052 26.0942 13.3868C26.1009 13.3951 26.1076 13.4035 26.1143 13.4119C26.2049 13.4249 26.2948 13.4382 26.3839 13.4515ZM25.7452 13.3603C25.7308 13.3443 25.7164 13.3283 25.7017 13.3124C25.5815 13.2904 25.4601 13.2688 25.3374 13.2476C25.3518 13.2691 25.366 13.2906 25.38 13.3121C25.503 13.3279 25.6248 13.344 25.7452 13.3603ZM25.0659 13.2729C25.0469 13.2459 25.0276 13.2191 25.0079 13.1924C24.8697 13.1698 24.7301 13.1479 24.5891 13.1264C24.6069 13.1584 24.6243 13.1906 24.6414 13.2228C24.7844 13.2391 24.9259 13.2558 25.0659 13.2729ZM24.7713 13.4851C24.9301 13.5038 25.0875 13.523 25.2432 13.5427C25.6234 14.1665 25.8309 14.8395 25.8309 15.5409C25.8309 16.2406 25.6247 16.9119 25.2466 17.5344C25.0905 17.5541 24.9329 17.5732 24.7737 17.5919C25.0711 16.9462 25.232 16.2568 25.232 15.541C25.232 14.8234 25.0702 14.1323 24.7713 13.4851ZM24.3432 13.1896C24.3225 13.1531 24.3012 13.1168 24.2796 13.0806C24.1311 13.0592 23.9811 13.0384 23.8298 13.0182C23.8485 13.0591 23.8667 13.1002 23.8844 13.1415C24.0389 13.1571 24.1919 13.1732 24.3432 13.1896ZM23.9884 13.3987C24.1547 13.416 24.3195 13.4337 24.4828 13.452C24.8079 14.1068 24.9847 14.8102 24.9847 15.5417C24.9847 16.2711 24.809 16.9721 24.4859 17.6249C24.3223 17.6432 24.1571 17.6609 23.9904 17.6782C24.2451 17.0037 24.3826 16.2856 24.3826 15.5409C24.3826 14.7945 24.2444 14.0747 23.9884 13.3987ZM23.606 13.1141C23.5856 13.0694 23.5647 13.0251 23.5433 12.9809C23.3871 12.961 23.2294 12.9418 23.0704 12.9233C23.0884 12.9717 23.1058 13.0204 23.1228 13.0693C23.2854 13.0838 23.4465 13.0987 23.606 13.1141ZM23.2056 13.3227C23.3772 13.3383 23.5474 13.3544 23.7162 13.3712C23.99 14.053 24.1384 14.7827 24.1384 15.5409C24.1384 16.2973 23.9906 17.0253 23.7179 17.7057C23.5483 17.7224 23.3772 17.7386 23.2048 17.7542C23.42 17.0544 23.5362 16.3112 23.5371 15.5409V15.5394C23.537 14.7679 23.421 14.0235 23.2056 13.3227ZM22.9397 13.2991C20.7822 13.1118 18.4199 13.0128 15.9977 13.0128H15.9575V13.0136C13.5486 13.0136 11.2003 13.1117 9.05416 13.2971C8.82591 14.004 8.70259 14.7581 8.70259 15.5409C8.70259 16.32 8.82472 17.0705 9.05087 17.7745C11.2097 17.9621 13.5738 18.0612 15.9977 18.0612H16.0386C18.4475 18.0612 20.7969 17.9631 22.9437 17.7774C23.1704 17.0726 23.2929 16.3211 23.2929 15.5409C23.292 14.7587 23.1682 14.0053 22.9397 13.2991ZM22.8526 13.0459C20.7631 12.8687 18.4354 12.7686 16.0015 12.7686H15.9606C13.5387 12.7686 11.222 12.8676 9.14144 13.0431C9.16005 12.992 9.17922 12.9412 9.19893 12.8907C11.2881 12.6592 13.5949 12.5368 15.9675 12.5368H16.0015C18.3834 12.5368 20.6984 12.6591 22.7944 12.8918C22.8144 12.9429 22.8338 12.9942 22.8526 13.0459ZM8.87187 13.0664C8.88865 13.018 8.90592 12.9698 8.92366 12.9219C8.7651 12.9404 8.60786 12.9595 8.452 12.9792C8.43082 13.0229 8.41017 13.0667 8.39005 13.1107C8.54911 13.0955 8.70974 13.0807 8.87187 13.0664ZM8.10977 13.1383C8.12729 13.0976 8.14526 13.057 8.16365 13.0167C8.01318 13.0367 7.86407 13.0573 7.71639 13.0785C7.69506 13.1141 7.67418 13.1499 7.65375 13.1858C7.80419 13.1696 7.95621 13.1537 8.10977 13.1383ZM7.51355 13.4492C7.67599 13.4311 7.83993 13.4135 8.0053 13.3964C7.74894 14.0728 7.61054 14.7931 7.61054 15.5401C7.61054 16.2838 7.7477 17.0009 8.00185 17.6746C7.83703 17.6575 7.67365 17.6399 7.51176 17.6217C7.18825 16.9683 7.01234 16.2668 7.01234 15.5371C7.01234 14.806 7.1889 14.1033 7.51355 13.4492ZM7.35981 13.2184C7.37661 13.1867 7.39375 13.155 7.41122 13.1235C7.26849 13.1451 7.12717 13.1673 6.98732 13.19C6.96807 13.2162 6.94914 13.2424 6.93052 13.2688C7.07203 13.2516 7.21515 13.2348 7.35981 13.2184ZM6.75242 13.5396C6.90979 13.5198 7.06878 13.5005 7.22932 13.4817C6.93008 14.1293 6.76811 14.8211 6.76811 15.5394C6.76811 16.2546 6.9287 16.9435 7.22551 17.5888C7.0648 17.5699 6.90563 17.5505 6.7481 17.5306C6.37041 16.9084 6.16441 16.2376 6.16441 15.5386C6.16441 14.8368 6.37197 14.1636 6.75242 13.5396ZM6.61448 13.3081C6.6281 13.2872 6.64191 13.2662 6.6559 13.2454C6.53528 13.2661 6.41583 13.2872 6.29759 13.3088C6.28334 13.3243 6.26925 13.3398 6.25531 13.3553C6.37377 13.3393 6.4935 13.3236 6.61448 13.3081ZM6.0216 13.6372C6.16329 13.6172 6.30648 13.5976 6.45112 13.5785C6.10642 14.1938 5.91941 14.8531 5.91941 15.5386C5.91941 16.2212 6.10496 16.8781 6.44709 17.4915C6.30215 17.4723 6.15867 17.4526 6.01671 17.4324C5.56037 16.8316 5.32199 16.1915 5.32199 15.5377C5.32199 14.8814 5.56206 14.2394 6.0216 13.6372ZM5.88877 13.4063C5.89518 13.3983 5.90162 13.3902 5.9081 13.3822C5.8116 13.401 5.71598 13.4201 5.62125 13.4394C5.61847 13.4419 5.6157 13.4443 5.61293 13.4467C5.70402 13.4331 5.79597 13.4196 5.88877 13.4063ZM5.3008 13.7449C5.42679 13.725 5.55414 13.7055 5.68281 13.6863C5.29037 14.2662 5.07699 14.8893 5.07699 15.5377C5.07699 16.1838 5.28887 16.8047 5.67869 17.3831C5.5481 17.3636 5.41888 17.3436 5.29108 17.3233C4.76405 16.7672 4.47257 16.1646 4.47257 15.5393C4.47257 14.9099 4.7676 14.3037 5.3008 13.7449ZM4.56877 13.8678C4.63728 13.8556 4.70672 13.8434 4.77712 13.8313C4.82095 13.8238 4.86495 13.8163 4.90914 13.8088C4.46795 14.3498 4.22757 14.9324 4.22757 15.5393C4.22757 16.1421 4.46481 16.721 4.90055 17.2592C4.86392 17.253 4.82741 17.2467 4.79103 17.2404C4.71332 17.2271 4.63675 17.2136 4.56134 17.2001C3.95755 16.6835 3.62238 16.1211 3.62238 15.5371C3.62238 14.9504 3.96025 14.3859 4.56877 13.8678ZM3.91002 13.9922C3.98037 13.9782 4.05188 13.9641 4.12458 13.9501C3.64157 14.4457 3.37815 14.9801 3.37815 15.5371C3.37815 16.0915 3.63939 16.6237 4.1186 17.1177C4.04506 17.1034 3.97273 17.0891 3.90159 17.0748C3.18343 16.5963 2.78 16.0746 2.78 15.5363C2.78 14.9956 3.18659 14.472 3.91002 13.9922ZM3.2691 14.1289C3.29069 14.124 3.31241 14.1191 3.33427 14.1142C2.80884 14.5641 2.535 15.0426 2.535 15.5332C2.535 16.0242 2.80951 16.5036 3.33628 16.9545C3.30548 16.9476 3.27495 16.9406 3.24467 16.9337C2.39525 16.4837 1.93371 16.0032 1.93371 15.5378C1.93371 15.0676 2.40415 14.5823 3.2691 14.1289ZM1.41453 14.6674C0.583056 14.9887 0.241136 15.2944 0.241136 15.5316C0.241136 15.7672 0.579323 16.072 1.40056 16.3927C1.03736 16.1185 0.842427 15.8309 0.842427 15.5356C0.842427 15.2362 1.04237 14.9448 1.41453 14.6674ZM5.60391 17.6239C5.60708 17.6267 5.61025 17.6295 5.61343 17.6323C5.71009 17.6522 5.80769 17.6718 5.90621 17.6911C5.8993 17.6825 5.89244 17.674 5.88562 17.6654C5.79083 17.6517 5.69692 17.6379 5.60391 17.6239ZM6.25133 17.7165C6.26578 17.7327 6.28039 17.7488 6.29516 17.7649C6.41349 17.7866 6.53302 17.8079 6.65372 17.8287C6.63933 17.8072 6.62513 17.7856 6.61113 17.764C6.48993 17.7484 6.36999 17.7326 6.25133 17.7165ZM6.92695 17.8035C6.946 17.8306 6.96539 17.8575 6.9851 17.8844C7.12493 17.9072 7.26623 17.9295 7.40894 17.9512C7.39112 17.919 7.37365 17.8866 7.35652 17.8542C7.21176 17.8377 7.06855 17.8208 6.92695 17.8035ZM7.65281 17.8872C7.67365 17.9239 7.69496 17.9604 7.71674 17.9968C7.86357 18.0179 8.01182 18.0385 8.16141 18.0585C8.14274 18.0175 8.12451 17.9762 8.10673 17.9348C7.95389 17.9194 7.80256 17.9035 7.65281 17.8872ZM8.38707 17.9625C8.40746 18.0073 8.4284 18.0518 8.44989 18.0962C8.60599 18.116 8.76348 18.1352 8.92229 18.1538C8.90432 18.1052 8.88684 18.0563 8.86985 18.0072C8.7074 17.9928 8.54645 17.9779 8.38707 17.9625ZM8.78626 17.7509C8.57221 17.052 8.45696 16.3099 8.45682 15.5409C8.45668 14.7682 8.57281 14.0226 8.78867 13.3206C8.61752 13.3361 8.44771 13.3522 8.27932 13.3688C8.00501 14.0511 7.85631 14.7813 7.85631 15.5401C7.85631 16.2955 8.00377 17.0227 8.27585 17.7024C8.44459 17.7191 8.61475 17.7353 8.78626 17.7509ZM9.13847 18.0306C9.15727 18.0824 9.17663 18.1339 9.19656 18.1851C11.2957 18.4186 13.6151 18.5413 16.0015 18.5413H16.0317C18.4036 18.5413 20.7095 18.419 22.7979 18.1877C22.8177 18.1369 22.8369 18.0859 22.8555 18.0346C20.7757 18.2098 18.46 18.3086 16.0394 18.3086H15.9985C13.561 18.3086 11.2302 18.2082 9.13847 18.0306ZM23.1205 18.0118C23.1035 18.0604 23.0862 18.1088 23.0683 18.157C23.2281 18.1384 23.3867 18.1192 23.5438 18.0993C23.565 18.0554 23.5858 18.0114 23.606 17.9671C23.4457 17.9825 23.2838 17.9973 23.1205 18.0118ZM23.8848 17.9398C23.8672 17.9807 23.8492 18.0215 23.8307 18.062C23.9822 18.0419 24.1324 18.0211 24.2811 17.9997C24.3026 17.964 24.3235 17.928 24.344 17.8919C24.1925 17.9083 24.0394 17.9243 23.8848 17.9398ZM24.6416 17.859C24.6248 17.8908 24.6076 17.9226 24.5901 17.9542C24.7312 17.9328 24.8709 17.9109 25.0092 17.8885C25.0285 17.8621 25.0475 17.8357 25.0663 17.8092C24.9263 17.8262 24.7847 17.8428 24.6416 17.859ZM25.3826 17.7699C25.3689 17.791 25.355 17.8121 25.3409 17.8331C25.463 17.8121 25.5839 17.7907 25.7035 17.7689C25.7178 17.7534 25.7319 17.7378 25.7459 17.7222C25.6261 17.7384 25.505 17.7543 25.3826 17.7699ZM25.9827 17.4359C26.4389 16.8356 26.6772 16.1961 26.6772 15.5424C26.6772 14.8862 26.4371 14.2438 25.9776 13.641C25.8342 13.6207 25.6893 13.6008 25.5429 13.5815C25.8884 14.1972 26.0759 14.8568 26.0759 15.5425C26.0759 16.2252 25.8903 16.882 25.548 17.4954C25.6944 17.476 25.8393 17.4562 25.9827 17.4359ZM26.1154 17.6708C26.109 17.6788 26.1026 17.6868 26.0961 17.6948C26.1914 17.6763 26.2859 17.6574 26.3795 17.6382C26.3823 17.6358 26.3851 17.6333 26.3879 17.6309C26.2979 17.6443 26.2071 17.6576 26.1154 17.6708ZM6.6156 18.0855L6.59122 18.0629C6.67795 18.0779 6.76542 18.0927 6.85363 18.1073L6.88384 18.1463C6.79335 18.1263 6.70394 18.106 6.6156 18.0855ZM7.25877 18.2264C7.24071 18.2056 7.22286 18.1847 7.20522 18.1638C7.32444 18.1824 7.44491 18.2006 7.56659 18.2185C7.58327 18.2451 7.60019 18.2717 7.61734 18.2981C7.49616 18.2746 7.37663 18.2507 7.25877 18.2264ZM7.95489 18.3615C7.93209 18.3293 7.90967 18.2969 7.88762 18.2644C8.01929 18.2828 8.15229 18.3007 8.28658 18.3182C8.30568 18.3556 8.32515 18.3929 8.34499 18.43C8.21325 18.4077 8.08321 18.3848 7.95489 18.3615ZM8.65311 18.4809C8.62936 18.4394 8.60609 18.3977 8.58332 18.3558C8.728 18.3737 8.8741 18.3911 9.02157 18.408C9.04068 18.4545 9.06025 18.5007 9.08026 18.5467C8.93608 18.5253 8.79368 18.5034 8.65311 18.4809ZM15.9985 18.7863C13.6122 18.7863 11.3334 18.6607 9.30104 18.4393C9.32266 18.4891 9.34481 18.5387 9.3675 18.588C11.2999 18.8586 13.5392 19.0204 16 19.0204H16.0216C18.4713 19.0204 20.7011 18.8599 22.6265 18.5912C22.6493 18.5418 22.6715 18.4921 22.6932 18.4421C20.6698 18.6618 18.4025 18.7863 16.0286 18.7863H15.9985ZM22.9095 18.5506C22.9296 18.5044 22.9493 18.4581 22.9686 18.4115C23.1172 18.3945 23.2644 18.3771 23.4101 18.3591C23.3873 18.4011 23.3639 18.4429 23.34 18.4845C23.1984 18.5071 23.0548 18.5292 22.9095 18.5506ZM23.6467 18.4341C23.6666 18.3968 23.6862 18.3593 23.7054 18.3217C23.8417 18.304 23.9767 18.2859 24.1103 18.2673C24.0882 18.2999 24.0658 18.3323 24.0429 18.3646C23.9126 18.3883 23.7805 18.4115 23.6467 18.4341ZM24.3814 18.3012C24.3986 18.2747 24.4156 18.248 24.4323 18.2213C24.5525 18.2037 24.6715 18.1857 24.7893 18.1674C24.7715 18.1885 24.7535 18.2096 24.7352 18.2306C24.6189 18.2545 24.5009 18.2781 24.3814 18.3012ZM25.1107 18.1505L25.1414 18.1109C25.2311 18.0961 25.3201 18.0811 25.4083 18.0658L25.3835 18.0888C25.2937 18.1096 25.2028 18.1302 25.1107 18.1505ZM30.911 15.5425C30.911 15.9262 30.4405 16.3261 29.5821 16.7032C30.059 16.3321 30.3066 15.941 30.3066 15.5417C30.3066 15.1417 30.0565 14.7502 29.5763 14.3787C30.4384 14.7573 30.911 15.1585 30.911 15.5425ZM25.3852 12.9957L25.4039 13.013C25.3152 12.9977 25.2258 12.9825 25.1357 12.9676L25.1088 12.933C25.2021 12.9536 25.2942 12.9745 25.3852 12.9957ZM24.7365 12.8535C24.7532 12.8728 24.7698 12.8921 24.7861 12.9115C24.6687 12.8932 24.5501 12.8752 24.4302 12.8576C24.4145 12.8325 24.3986 12.8076 24.3824 12.7827C24.5021 12.8059 24.6201 12.8295 24.7365 12.8535ZM24.0435 12.7191C24.0652 12.7497 24.0865 12.7805 24.1075 12.8114C23.9743 12.7928 23.8396 12.7747 23.7036 12.757C23.6852 12.721 23.6665 12.6851 23.6474 12.6494C23.7812 12.6721 23.9132 12.6953 24.0435 12.7191ZM23.3415 12.599C23.3644 12.639 23.3869 12.6792 23.4089 12.7196C23.2641 12.7017 23.1179 12.6843 22.9704 12.6674C22.9518 12.6224 22.9328 12.5777 22.9134 12.5331C23.0579 12.5545 23.2006 12.5765 23.3415 12.599ZM22.624 12.4915C22.6461 12.5394 22.6677 12.5875 22.6888 12.636C20.6583 12.4149 18.382 12.2895 15.9985 12.2895H15.9675C13.5944 12.2895 11.3279 12.4139 9.30508 12.6333C9.32608 12.585 9.34758 12.537 9.36959 12.4893C11.2955 12.2205 13.5258 12.0599 15.976 12.0599H15.9969C18.4554 12.0599 20.6928 12.2214 22.624 12.4915ZM9.0812 12.5307C9.06186 12.5751 9.04293 12.6197 9.02442 12.6645C8.87739 12.6813 8.73171 12.6986 8.58743 12.7163C8.60938 12.6761 8.63179 12.636 8.65464 12.5962C8.79502 12.5738 8.93722 12.5519 9.0812 12.5307ZM8.34672 12.6469C8.32771 12.6824 8.30904 12.718 8.29071 12.7539C8.15565 12.7714 8.02188 12.7893 7.88946 12.8077C7.91036 12.777 7.9316 12.7464 7.95318 12.7159C8.08261 12.6924 8.2138 12.6693 8.34672 12.6469ZM7.61877 12.7786C7.60267 12.8033 7.58678 12.8282 7.57111 12.8531C7.44965 12.8709 7.32939 12.8891 7.21038 12.9076C7.22659 12.8884 7.24298 12.8693 7.25953 12.8502C7.37761 12.8259 7.49737 12.802 7.61877 12.7786ZM6.8846 12.9302L6.85838 12.964C6.77063 12.9785 6.6836 12.9931 6.59732 13.008L6.61565 12.991C6.70422 12.9705 6.79387 12.9502 6.8846 12.9302ZM1.68871 15.5394C1.68871 15.1392 1.93731 14.7474 2.41594 14.3757C1.55952 14.7526 1.09052 15.1522 1.09052 15.5356C1.09052 15.9161 1.55456 16.3135 2.40168 16.689C1.93283 16.3215 1.68871 15.9345 1.68871 15.5394ZM24.427 12.5467C24.3439 12.5254 24.2599 12.5044 24.1751 12.4837L24.1881 12.5014C24.2682 12.5162 24.3479 12.5313 24.427 12.5467ZM23.8313 12.4373L23.7968 12.3945C23.6854 12.3691 23.5726 12.3443 23.4587 12.3199C23.471 12.3401 23.4832 12.3603 23.4953 12.3805C23.6082 12.399 23.7202 12.4179 23.8313 12.4373ZM23.1785 12.3302C23.1616 12.3037 23.1445 12.2774 23.1272 12.2512C23.002 12.226 22.8754 12.2015 22.7474 12.1776C22.7632 12.2092 22.7788 12.241 22.7942 12.2729C22.9233 12.2914 23.0514 12.3105 23.1785 12.3302ZM22.4976 12.2315C20.4977 11.96 18.282 11.8172 15.9984 11.8172H15.976C13.6979 11.8172 11.4904 11.9594 9.49564 12.2297C9.51463 12.1924 9.53393 12.1554 9.55354 12.1186C11.4809 11.78 13.6851 11.5831 15.9814 11.5831H15.9969C18.2991 11.5831 20.5088 11.7814 22.4405 12.1218C22.4598 12.1582 22.4789 12.1947 22.4976 12.2315ZM9.20037 12.2708C9.21601 12.2384 9.23188 12.206 9.24797 12.1738C9.12074 12.1976 8.9948 12.2219 8.8702 12.2468C8.85243 12.2737 8.83487 12.3007 8.81752 12.3278C8.94418 12.3082 9.07181 12.2893 9.20037 12.2708ZM8.49864 12.3784C8.51113 12.3574 8.52375 12.3365 8.53649 12.3157C8.42365 12.3398 8.31201 12.3643 8.20161 12.3893L8.16512 12.4345C8.27547 12.4154 8.38665 12.3967 8.49864 12.3784ZM7.81287 12.4976L7.82801 12.4771C7.7311 12.5006 7.63525 12.5246 7.54046 12.5489L7.54004 12.5493C7.63036 12.5318 7.7213 12.5146 7.81287 12.4976ZM7.58538 18.5373C7.66432 18.5574 7.74399 18.5773 7.82438 18.5969L7.81206 18.5802C7.73606 18.5661 7.6605 18.5518 7.58538 18.5373ZM8.16782 18.644L8.20152 18.6857C8.31084 18.7106 8.42136 18.7349 8.53306 18.7588C8.52103 18.7391 8.50911 18.7193 8.4973 18.6995C8.38667 18.6814 8.27683 18.6629 8.16782 18.644ZM8.81642 18.7503C8.83306 18.7763 8.8499 18.8022 8.86693 18.828C8.9919 18.8531 9.11822 18.8776 9.24584 18.9014C9.23026 18.8702 9.21488 18.8388 9.19973 18.8073C9.071 18.7889 8.94322 18.7698 8.81642 18.7503ZM9.49372 18.8484C9.5122 18.8847 9.53096 18.9207 9.55002 18.9567C11.4823 19.2974 13.6931 19.4957 15.9961 19.4957H16.0116C18.3097 19.4957 20.5156 19.2984 22.444 18.9593C22.4631 18.9234 22.4819 18.8873 22.5004 18.851C20.5057 19.1212 18.2984 19.2631 16.0201 19.2631H15.9984C13.7124 19.2631 11.4949 19.1201 9.49372 18.8484ZM22.7899 18.8107C22.7747 18.8423 22.7592 18.8738 22.7435 18.9051C22.8725 18.8811 23.0001 18.8564 23.1263 18.8311C23.1434 18.8053 23.1603 18.7793 23.177 18.7532C23.0489 18.773 22.9199 18.7921 22.7899 18.8107ZM23.4946 18.7029C23.4827 18.7228 23.4707 18.7426 23.4586 18.7624C23.5726 18.7381 23.6854 18.7133 23.7969 18.688L23.8306 18.6463C23.7194 18.6656 23.6074 18.6845 23.4946 18.7029ZM24.1869 18.5825L24.1747 18.5992C24.2546 18.5797 24.3338 18.56 24.4123 18.54C24.3376 18.5544 24.2625 18.5685 24.1869 18.5825ZM8.51298 19.0406L8.48631 19.0122C8.56713 19.0295 8.64844 19.0465 8.73025 19.0632L8.76114 19.1078C8.67765 19.0858 8.59492 19.0634 8.51298 19.0406ZM9.13303 19.2024C9.11527 19.1791 9.09768 19.1558 9.08025 19.1323C9.18554 19.1524 9.29159 19.172 9.39836 19.1912C9.41424 19.2198 9.43029 19.2483 9.44653 19.2767C9.34098 19.2525 9.23647 19.2277 9.13303 19.2024ZM15.9984 19.7407C13.7813 19.7407 11.6352 19.5694 9.71198 19.2457C9.73253 19.2804 9.75336 19.315 9.77446 19.3495C11.6147 19.7439 13.7461 19.9726 15.9945 19.9726H16.0069C18.2528 19.9726 20.3819 19.7446 22.2201 19.3509C22.2407 19.3174 22.261 19.2837 22.281 19.2499C20.363 19.5709 18.2238 19.7407 16.0139 19.7407H15.9984ZM22.5429 19.2794C22.5586 19.2519 22.5742 19.2243 22.5896 19.1966C22.6976 19.1773 22.8049 19.1576 22.9113 19.1374C22.8947 19.1597 22.878 19.1819 22.8611 19.2041C22.7561 19.2297 22.65 19.2549 22.5429 19.2794ZM23.2314 19.11L23.2598 19.069C23.3437 19.0519 23.427 19.0346 23.5098 19.0169L23.4876 19.0406C23.403 19.0641 23.3176 19.0873 23.2314 19.11ZM23.4863 12.0404L23.5078 12.0633C23.4252 12.0456 23.342 12.0282 23.2583 12.0111L23.2305 11.971C23.3166 11.9937 23.4019 12.0169 23.4863 12.0404ZM22.8613 11.8771C22.8779 11.8988 22.8943 11.9206 22.9106 11.9425C22.8054 11.9225 22.6993 11.9029 22.5926 11.8837C22.5775 11.8565 22.5622 11.8294 22.5468 11.8024C22.6526 11.8268 22.7575 11.8516 22.8613 11.8771ZM22.2154 11.7289C22.2357 11.762 22.2558 11.7953 22.2757 11.8287C20.3548 11.5059 18.212 11.335 15.9984 11.335H15.9814C13.7731 11.335 11.6351 11.5052 9.71809 11.8259C9.73774 11.7927 9.75765 11.7597 9.77781 11.7269C11.6167 11.3339 13.7467 11.1062 15.9945 11.1062H15.9976C18.2455 11.1062 20.376 11.3347 22.2154 11.7289ZM9.44826 11.7998C9.43297 11.8265 9.41783 11.8534 9.40286 11.8803C9.29684 11.8992 9.19154 11.9186 9.08699 11.9384C9.10313 11.9167 9.11941 11.8952 9.13583 11.8737C9.23892 11.8485 9.34308 11.8239 9.44826 11.7998ZM8.7642 11.9679L8.73706 12.0071C8.65453 12.0238 8.57251 12.0408 8.491 12.0582L8.51166 12.0362C8.59504 12.0131 8.67922 11.9903 8.7642 11.9679ZM22.6028 11.5586L22.588 11.5415C22.5077 11.5171 22.4266 11.4931 22.3447 11.4695L22.3681 11.506C22.4469 11.5232 22.5251 11.5408 22.6028 11.5586ZM22.0238 11.4335C22.0088 11.4116 21.9938 11.3898 21.9786 11.3681C20.2226 10.9013 18.1687 10.6292 15.9976 10.6292V10.6308H15.9984C13.8249 10.6308 11.7694 10.9025 10.0126 11.3688C9.99898 11.3883 9.98548 11.4078 9.97207 11.4274C11.7597 11.0664 13.8079 10.8612 15.9829 10.8612C18.168 10.8612 20.2272 11.0688 22.0238 11.4335ZM22.0263 19.6501C20.2372 20.0119 18.1862 20.2176 16.0069 20.2176H15.9945C13.8134 20.2176 11.7596 20.0111 9.96779 19.6481C9.98218 19.6692 9.99667 19.6902 10.0113 19.7111C11.7688 20.1785 13.825 20.4509 15.9984 20.4509L16.0069 20.5738V20.4509C18.176 20.4509 20.2279 20.1796 21.9822 19.714C21.997 19.6927 22.0117 19.6715 22.0263 19.6501ZM22.3613 19.5798L22.3384 19.6156C22.4214 19.5918 22.5036 19.5675 22.585 19.5428L22.5987 19.527C22.5202 19.5449 22.441 19.5625 22.3613 19.5798ZM9.39474 19.5247C9.47173 19.5423 9.54926 19.5596 9.62733 19.5766L9.64925 19.6109C9.56795 19.5875 9.48734 19.5636 9.40745 19.5394L9.39474 19.5247ZM9.39863 11.5506C9.47514 11.5332 9.5522 11.516 9.62978 11.4992L9.6488 11.4694C9.56754 11.4928 9.48696 11.5166 9.40711 11.5408L9.39863 11.5506ZM15.9984 20.6959C13.9137 20.6959 11.9541 20.4573 10.2542 20.0393L10.2842 20.0773C11.9815 20.631 13.9476 20.9277 15.9977 20.9277L16.0031 21.0498V20.9277C18.0497 20.9277 20.0125 20.6321 21.7088 20.0804L21.7393 20.0419C20.0422 20.4583 18.0867 20.6959 16.0069 20.6959H15.9984ZM15.9899 10.3858C13.9095 10.3858 11.9534 10.6235 10.256 11.0403L10.2871 11.0009C11.984 10.4485 13.9486 10.1525 15.9996 10.1523C18.0446 10.1525 20.0059 10.4468 21.7019 10.998L21.7382 11.0438C20.0361 10.6249 18.0746 10.3858 15.9899 10.3858ZM22.1223 11.1426L22.1304 11.1447L22.1216 11.1416L22.1223 11.1426ZM21.4094 20.4331L21.4062 20.4367C19.8546 21.0479 17.9965 21.4039 16.0015 21.4039H15.9977C14.0003 21.4039 12.1401 21.0469 10.5872 20.4343L10.582 20.4286C12.1801 20.9014 14.0307 21.172 16.0015 21.172H16.0069C17.9703 21.172 19.815 20.9032 21.4094 20.4331ZM21.4045 10.6482C19.8082 10.1774 17.9614 9.90812 15.9961 9.90812C14.0293 9.90812 12.1822 10.1773 10.5865 10.6482L10.5911 10.6432C12.1431 10.0322 14.0017 9.67635 15.9977 9.67635C17.9908 9.67635 19.8479 10.032 21.3995 10.6426L21.4045 10.6482ZM15.9977 21.6489C14.3145 21.6489 12.7264 21.3975 11.3301 20.9533C12.6919 21.5405 14.2911 21.8793 16.0001 21.8793C17.7121 21.8793 19.3139 21.5396 20.6772 20.9508C19.279 21.3966 17.688 21.6489 16.0015 21.6489H15.9977ZM15.9938 9.4329C14.3026 9.4329 12.7075 9.68644 11.3067 10.1342C12.6732 9.54175 14.2804 9.1997 15.9989 9.19954C17.7254 9.1997 19.3397 9.54564 20.7104 10.1441C19.3019 9.69024 17.6961 9.4329 15.9938 9.4329ZM20.0106 21.4715C18.8258 22.0358 17.4564 22.3584 15.9985 22.3584V22.6034C17.2083 22.6034 18.359 22.3865 19.3988 21.9964C18.3833 22.5325 17.2259 22.8361 15.9977 22.8361C14.7696 22.8361 13.6123 22.5326 12.5968 21.9965C13.6368 22.3865 14.7878 22.6034 15.9977 22.6034V22.3584C14.5351 22.3584 13.1613 22.0337 11.9738 21.4659C13.1912 21.8886 14.5575 22.1258 16.0001 22.1258C17.4362 22.1258 18.797 21.8907 20.0106 21.4715ZM20.014 9.61105C18.7988 9.19051 17.436 8.95454 15.9977 8.95454C14.5582 8.95454 13.1947 9.1908 11.9792 9.61185C13.1653 9.04606 14.537 8.72263 15.9977 8.72263C17.4577 8.72263 18.8285 9.04577 20.014 9.61105ZM15.9962 8.47763C14.79 8.47763 13.6425 8.6932 12.6051 9.08099C13.6186 8.54762 14.7729 8.24577 15.9977 8.24577C17.2176 8.24718 18.3673 8.5475 19.3776 9.07744C18.3427 8.69189 17.1986 8.47763 15.9962 8.47763Z" fill="url(#paint0_linear_9920_22)"/>
</g>
<defs>
<linearGradient id="paint0_linear_9920_22" x1="0" y1="15.5386" x2="32" y2="15.5386" gradientUnits="userSpaceOnUse">
<stop stop-color="#FDA9FF"/>
<stop offset="1" stop-color="#039CFF"/>
</linearGradient>
</defs>
</svg>
