<svg width="24" height="24" viewBox="0 0 24 24" fill="none" xmlns="http://www.w3.org/2000/svg">
<g id="rocket-02">
<g id="Icon" opacity="0.5">
<path d="M9 12H4C4 12 4.55 8.96999 6 7.99999C7.62 6.91999 11 8.04999 11 8.04999" fill="white"/>
<path d="M12 15V20C12 20 15.03 19.45 16 18C17.08 16.38 16 13 16 13" fill="white"/>
<path d="M12 15C13.3968 14.4687 14.7369 13.7987 16 13C16 13 17.08 16.38 16 18C15.03 19.45 12 20 12 20V15ZM9 12C9.53214 10.6194 10.2022 9.29606 11 8.04999C11 8.04999 7.62 6.91999 6 7.99999C4.55 8.96999 4 12 4 12H9Z" stroke="white" stroke-linecap="round" stroke-linejoin="round"/>
</g>
<g id="Icon_2">
<path d="M4.5 16.5C3 17.76 2.5 21.5 2.5 21.5C2.5 21.5 6.24 21 7.5 19.5C8.21 18.66 8.2 17.37 7.41 16.59C7.02131 16.219 6.50929 16.0046 5.97223 15.988C5.43516 15.9714 4.91088 16.1537 4.5 16.5Z" fill="white"/>
<path d="M12 15L9 12C9.53214 10.6194 10.2022 9.29607 11 8.05C12.1652 6.18699 13.7876 4.65305 15.713 3.5941C17.6384 2.53514 19.8027 1.98637 22 2C22 4.72 21.22 9.5 16 13C14.7369 13.7987 13.3968 14.4687 12 15Z" fill="white"/>
<path d="M4.5 16.5C3 17.76 2.5 21.5 2.5 21.5C2.5 21.5 6.24 21 7.5 19.5C8.21 18.66 8.2 17.37 7.41 16.59C7.02131 16.219 6.50929 16.0046 5.97223 15.988C5.43516 15.9714 4.91088 16.1537 4.5 16.5Z" stroke="white" stroke-linecap="round" stroke-linejoin="round"/>
<path d="M12 15L9 12C9.53214 10.6194 10.2022 9.29607 11 8.05C12.1652 6.18699 13.7876 4.65305 15.713 3.5941C17.6384 2.53514 19.8027 1.98637 22 2C22 4.72 21.22 9.5 16 13C14.7369 13.7987 13.3968 14.4687 12 15Z" stroke="white" stroke-linecap="round" stroke-linejoin="round"/>
</g>
</g>
</svg>
