<svg width="24" height="24" viewBox="0 0 24 24" fill="none" xmlns="http://www.w3.org/2000/svg">
<g id="server-05">
<path id="Union" fill-rule="evenodd" clip-rule="evenodd" d="M6.96094 7.03906C6.96094 5.70262 7.49184 4.42091 8.43684 3.47591C9.38185 2.5309 10.6636 2 12 2C13.3364 2 14.6181 2.5309 15.5632 3.47591C16.5082 4.42091 17.0391 5.70262 17.0391 7.03906C18.3755 7.03906 19.6572 7.56996 20.6022 8.51497C21.5472 9.45998 22.0781 10.7417 22.0781 12.0781C22.0781 13.4146 21.5472 14.6963 20.6022 15.6413C19.6572 16.5863 18.3755 17.1172 17.0391 17.1172C17.0391 18.4536 16.5082 19.7353 15.5632 20.6803C14.6181 21.6254 13.3364 22.1562 12 22.1562C10.6636 22.1562 9.38185 21.6254 8.43684 20.6803C7.49184 19.7353 6.96094 18.4536 6.96094 17.1172C5.6245 17.1172 4.34279 16.5863 3.39778 15.6413C2.45277 14.6963 1.92188 13.4146 1.92188 12.0781C1.92188 10.7417 2.45277 9.45998 3.39778 8.51497C4.34279 7.56996 5.6245 7.03906 6.96094 7.03906Z" fill="white" fill-opacity="0.5"/>
<path id="Vector" d="M17.0391 17.0781C14.2561 17.0781 12 14.822 12 12.0391C14.783 12.0391 17.0391 14.2952 17.0391 17.0781ZM12 12.0391C12 9.25609 14.2561 7 17.0391 7C17.0391 9.78297 14.783 12.0391 12 12.0391ZM12 12.0391C12 14.822 9.74391 17.0781 6.96094 17.0781C6.96094 14.2952 9.21703 12.0391 12 12.0391ZM12 12.0391C9.21703 12.0391 6.96094 9.78297 6.96094 7C9.74391 7 12 9.25609 12 12.0391Z" fill="white"/>
</g>
</svg>
