<svg width="665" height="57" viewBox="0 0 665 57" fill="none" xmlns="http://www.w3.org/2000/svg">
<mask id="path-1-outside-1_10438_3539" maskUnits="userSpaceOnUse" x="0.399902" y="0.0799561" width="665" height="56" fill="black">
<rect fill="white" x="0.399902" y="0.0799561" width="665" height="56"/>
<path d="M1.3999 38.088V2.15996H8.3119V37.728C8.3119 46.368 13.0639 48.744 19.5439 48.744C26.0239 48.744 30.7759 46.368 30.7759 37.728V2.15996H37.6879V38.088C37.6879 49.428 31.2439 54.936 19.5439 54.936C7.8439 54.936 1.3999 49.428 1.3999 38.088Z"/>
<path d="M55.0613 54H48.1493V2.15996H60.7493L77.3093 46.728C77.4533 47.088 77.6693 47.16 78.0293 47.16C78.3893 47.16 78.5333 46.944 78.5333 46.584V2.15996H85.4453V54H72.8453L56.2853 9.43196C56.1413 9.07196 55.9253 8.99996 55.5653 8.99996C55.2053 8.99996 55.0613 9.21595 55.0613 9.57595V54Z"/>
<path d="M127.258 54H96.2262V2.15996H103.138V47.808H127.258V54Z"/>
<path d="M166.597 54H133.405V2.15996H166.237V8.35196H140.317V23.904H163.717V30.096H140.317V47.808H166.597V54Z"/>
<path d="M177.653 54H170.777V52.56L186.221 2.15996H196.877L212.321 52.56V54H205.445L200.657 38.016H182.441L177.653 54ZM191.045 9.28795L184.313 31.824H198.785L192.053 9.28795C191.981 9.07196 191.837 8.99996 191.549 8.99996C191.261 8.99996 191.117 9.07196 191.045 9.28795Z"/>
<path d="M236.283 1.07996C246.363 1.07996 255.075 6.11996 255.507 16.92H248.523C248.163 10.152 243.339 7.19995 236.283 7.19995C229.227 7.19995 224.691 10.116 224.691 15.66C224.691 21.132 229.299 23.076 234.483 23.976L241.035 25.128C248.631 26.46 256.011 29.916 256.011 39.708C256.011 49.5 247.803 55.08 237.075 55.08C226.347 55.08 216.555 49.536 216.195 37.08H223.179C223.683 45.504 229.443 48.96 237.075 48.96C244.707 48.96 249.099 45.468 249.099 39.78C249.099 34.092 244.095 32.184 238.659 31.212L232.107 30.06C225.195 28.836 217.779 25.38 217.779 15.732C217.779 6.08396 226.203 1.07996 236.283 1.07996Z"/>
<path d="M270.836 54H263.924V2.15996H270.836V24.264H293.876V2.15996H300.788V54H293.876V30.456H270.836V54Z"/>
<path d="M353.068 54H346.192V52.56L361.636 2.15996H372.292L387.736 52.56V54H380.86L376.072 38.016H357.856L353.068 54ZM366.46 9.28795L359.728 31.824H374.2L367.468 9.28795C367.396 9.07196 367.252 8.99996 366.964 8.99996C366.676 8.99996 366.532 9.07196 366.46 9.28795Z"/>
<path d="M431.931 17.28C431.931 25.668 427.215 30.564 420.015 31.968L429.483 52.56V54H422.463L412.995 32.4H401.691V54H394.779V2.15996H415.371C425.091 2.15996 431.931 7.19995 431.931 17.28ZM414.651 8.35196H401.691V26.208H414.651C421.311 26.208 425.019 23.616 425.019 17.28C425.019 10.944 421.311 8.35196 414.651 8.35196Z"/>
<path d="M445.609 54L435.889 3.59995V2.15996H442.729L451.081 46.584C451.153 47.016 451.297 47.16 451.729 47.16C452.161 47.16 452.305 47.016 452.377 46.584L460.765 2.15996H472.789L481.177 46.584C481.249 47.016 481.393 47.16 481.825 47.16C482.257 47.16 482.401 47.016 482.473 46.584L490.825 2.15996H497.665V3.59995L487.945 54H475.849L467.425 9.43196C467.353 9.07196 467.137 8.99996 466.777 8.99996C466.417 8.99996 466.201 9.07196 466.129 9.43196L457.705 54H445.609Z"/>
<path d="M538.398 54H505.206V2.15996H538.038V8.35196H512.118V23.904H535.518V30.096H512.118V47.808H538.398V54Z"/>
<path d="M549.454 54H542.578V52.56L558.022 2.15996H568.678L584.122 52.56V54H577.246L572.458 38.016H554.242L549.454 54ZM562.846 9.28795L556.114 31.824H570.586L563.854 9.28795C563.782 9.07196 563.638 8.99996 563.35 8.99996C563.062 8.99996 562.918 9.07196 562.846 9.28795Z"/>
<path d="M582.006 2.15996H588.882L602.274 46.872C602.346 47.088 602.49 47.16 602.778 47.16C603.066 47.16 603.21 47.088 603.282 46.872L616.674 2.15996H623.55V3.59995L608.106 54H597.45L582.006 3.59995V2.15996Z"/>
<path d="M663.785 54H630.593V2.15996H663.425V8.35196H637.505V23.904H660.905V30.096H637.505V47.808H663.785V54Z"/>
</mask>
<path d="M1.3999 38.088V2.15996H8.3119V37.728C8.3119 46.368 13.0639 48.744 19.5439 48.744C26.0239 48.744 30.7759 46.368 30.7759 37.728V2.15996H37.6879V38.088C37.6879 49.428 31.2439 54.936 19.5439 54.936C7.8439 54.936 1.3999 49.428 1.3999 38.088Z" fill="black"/>
<path d="M55.0613 54H48.1493V2.15996H60.7493L77.3093 46.728C77.4533 47.088 77.6693 47.16 78.0293 47.16C78.3893 47.16 78.5333 46.944 78.5333 46.584V2.15996H85.4453V54H72.8453L56.2853 9.43196C56.1413 9.07196 55.9253 8.99996 55.5653 8.99996C55.2053 8.99996 55.0613 9.21595 55.0613 9.57595V54Z" fill="black"/>
<path d="M127.258 54H96.2262V2.15996H103.138V47.808H127.258V54Z" fill="black"/>
<path d="M166.597 54H133.405V2.15996H166.237V8.35196H140.317V23.904H163.717V30.096H140.317V47.808H166.597V54Z" fill="black"/>
<path d="M177.653 54H170.777V52.56L186.221 2.15996H196.877L212.321 52.56V54H205.445L200.657 38.016H182.441L177.653 54ZM191.045 9.28795L184.313 31.824H198.785L192.053 9.28795C191.981 9.07196 191.837 8.99996 191.549 8.99996C191.261 8.99996 191.117 9.07196 191.045 9.28795Z" fill="black"/>
<path d="M236.283 1.07996C246.363 1.07996 255.075 6.11996 255.507 16.92H248.523C248.163 10.152 243.339 7.19995 236.283 7.19995C229.227 7.19995 224.691 10.116 224.691 15.66C224.691 21.132 229.299 23.076 234.483 23.976L241.035 25.128C248.631 26.46 256.011 29.916 256.011 39.708C256.011 49.5 247.803 55.08 237.075 55.08C226.347 55.08 216.555 49.536 216.195 37.08H223.179C223.683 45.504 229.443 48.96 237.075 48.96C244.707 48.96 249.099 45.468 249.099 39.78C249.099 34.092 244.095 32.184 238.659 31.212L232.107 30.06C225.195 28.836 217.779 25.38 217.779 15.732C217.779 6.08396 226.203 1.07996 236.283 1.07996Z" fill="black"/>
<path d="M270.836 54H263.924V2.15996H270.836V24.264H293.876V2.15996H300.788V54H293.876V30.456H270.836V54Z" fill="black"/>
<path d="M353.068 54H346.192V52.56L361.636 2.15996H372.292L387.736 52.56V54H380.86L376.072 38.016H357.856L353.068 54ZM366.46 9.28795L359.728 31.824H374.2L367.468 9.28795C367.396 9.07196 367.252 8.99996 366.964 8.99996C366.676 8.99996 366.532 9.07196 366.46 9.28795Z" fill="black"/>
<path d="M431.931 17.28C431.931 25.668 427.215 30.564 420.015 31.968L429.483 52.56V54H422.463L412.995 32.4H401.691V54H394.779V2.15996H415.371C425.091 2.15996 431.931 7.19995 431.931 17.28ZM414.651 8.35196H401.691V26.208H414.651C421.311 26.208 425.019 23.616 425.019 17.28C425.019 10.944 421.311 8.35196 414.651 8.35196Z" fill="black"/>
<path d="M445.609 54L435.889 3.59995V2.15996H442.729L451.081 46.584C451.153 47.016 451.297 47.16 451.729 47.16C452.161 47.16 452.305 47.016 452.377 46.584L460.765 2.15996H472.789L481.177 46.584C481.249 47.016 481.393 47.16 481.825 47.16C482.257 47.16 482.401 47.016 482.473 46.584L490.825 2.15996H497.665V3.59995L487.945 54H475.849L467.425 9.43196C467.353 9.07196 467.137 8.99996 466.777 8.99996C466.417 8.99996 466.201 9.07196 466.129 9.43196L457.705 54H445.609Z" fill="black"/>
<path d="M538.398 54H505.206V2.15996H538.038V8.35196H512.118V23.904H535.518V30.096H512.118V47.808H538.398V54Z" fill="black"/>
<path d="M549.454 54H542.578V52.56L558.022 2.15996H568.678L584.122 52.56V54H577.246L572.458 38.016H554.242L549.454 54ZM562.846 9.28795L556.114 31.824H570.586L563.854 9.28795C563.782 9.07196 563.638 8.99996 563.35 8.99996C563.062 8.99996 562.918 9.07196 562.846 9.28795Z" fill="black"/>
<path d="M582.006 2.15996H588.882L602.274 46.872C602.346 47.088 602.49 47.16 602.778 47.16C603.066 47.16 603.21 47.088 603.282 46.872L616.674 2.15996H623.55V3.59995L608.106 54H597.45L582.006 3.59995V2.15996Z" fill="black"/>
<path d="M663.785 54H630.593V2.15996H663.425V8.35196H637.505V23.904H660.905V30.096H637.505V47.808H663.785V54Z" fill="black"/>
<path d="M1.3999 38.088V2.15996H8.3119V37.728C8.3119 46.368 13.0639 48.744 19.5439 48.744C26.0239 48.744 30.7759 46.368 30.7759 37.728V2.15996H37.6879V38.088C37.6879 49.428 31.2439 54.936 19.5439 54.936C7.8439 54.936 1.3999 49.428 1.3999 38.088Z" stroke="black" stroke-width="2" mask="url(#path-1-outside-1_10438_3539)"/>
<path d="M55.0613 54H48.1493V2.15996H60.7493L77.3093 46.728C77.4533 47.088 77.6693 47.16 78.0293 47.16C78.3893 47.16 78.5333 46.944 78.5333 46.584V2.15996H85.4453V54H72.8453L56.2853 9.43196C56.1413 9.07196 55.9253 8.99996 55.5653 8.99996C55.2053 8.99996 55.0613 9.21595 55.0613 9.57595V54Z" stroke="black" stroke-width="2" mask="url(#path-1-outside-1_10438_3539)"/>
<path d="M127.258 54H96.2262V2.15996H103.138V47.808H127.258V54Z" stroke="black" stroke-width="2" mask="url(#path-1-outside-1_10438_3539)"/>
<path d="M166.597 54H133.405V2.15996H166.237V8.35196H140.317V23.904H163.717V30.096H140.317V47.808H166.597V54Z" stroke="black" stroke-width="2" mask="url(#path-1-outside-1_10438_3539)"/>
<path d="M177.653 54H170.777V52.56L186.221 2.15996H196.877L212.321 52.56V54H205.445L200.657 38.016H182.441L177.653 54ZM191.045 9.28795L184.313 31.824H198.785L192.053 9.28795C191.981 9.07196 191.837 8.99996 191.549 8.99996C191.261 8.99996 191.117 9.07196 191.045 9.28795Z" stroke="black" stroke-width="2" mask="url(#path-1-outside-1_10438_3539)"/>
<path d="M236.283 1.07996C246.363 1.07996 255.075 6.11996 255.507 16.92H248.523C248.163 10.152 243.339 7.19995 236.283 7.19995C229.227 7.19995 224.691 10.116 224.691 15.66C224.691 21.132 229.299 23.076 234.483 23.976L241.035 25.128C248.631 26.46 256.011 29.916 256.011 39.708C256.011 49.5 247.803 55.08 237.075 55.08C226.347 55.08 216.555 49.536 216.195 37.08H223.179C223.683 45.504 229.443 48.96 237.075 48.96C244.707 48.96 249.099 45.468 249.099 39.78C249.099 34.092 244.095 32.184 238.659 31.212L232.107 30.06C225.195 28.836 217.779 25.38 217.779 15.732C217.779 6.08396 226.203 1.07996 236.283 1.07996Z" stroke="black" stroke-width="2" mask="url(#path-1-outside-1_10438_3539)"/>
<path d="M270.836 54H263.924V2.15996H270.836V24.264H293.876V2.15996H300.788V54H293.876V30.456H270.836V54Z" stroke="black" stroke-width="2" mask="url(#path-1-outside-1_10438_3539)"/>
<path d="M353.068 54H346.192V52.56L361.636 2.15996H372.292L387.736 52.56V54H380.86L376.072 38.016H357.856L353.068 54ZM366.46 9.28795L359.728 31.824H374.2L367.468 9.28795C367.396 9.07196 367.252 8.99996 366.964 8.99996C366.676 8.99996 366.532 9.07196 366.46 9.28795Z" stroke="black" stroke-width="2" mask="url(#path-1-outside-1_10438_3539)"/>
<path d="M431.931 17.28C431.931 25.668 427.215 30.564 420.015 31.968L429.483 52.56V54H422.463L412.995 32.4H401.691V54H394.779V2.15996H415.371C425.091 2.15996 431.931 7.19995 431.931 17.28ZM414.651 8.35196H401.691V26.208H414.651C421.311 26.208 425.019 23.616 425.019 17.28C425.019 10.944 421.311 8.35196 414.651 8.35196Z" stroke="black" stroke-width="2" mask="url(#path-1-outside-1_10438_3539)"/>
<path d="M445.609 54L435.889 3.59995V2.15996H442.729L451.081 46.584C451.153 47.016 451.297 47.16 451.729 47.16C452.161 47.16 452.305 47.016 452.377 46.584L460.765 2.15996H472.789L481.177 46.584C481.249 47.016 481.393 47.16 481.825 47.16C482.257 47.16 482.401 47.016 482.473 46.584L490.825 2.15996H497.665V3.59995L487.945 54H475.849L467.425 9.43196C467.353 9.07196 467.137 8.99996 466.777 8.99996C466.417 8.99996 466.201 9.07196 466.129 9.43196L457.705 54H445.609Z" stroke="black" stroke-width="2" mask="url(#path-1-outside-1_10438_3539)"/>
<path d="M538.398 54H505.206V2.15996H538.038V8.35196H512.118V23.904H535.518V30.096H512.118V47.808H538.398V54Z" stroke="black" stroke-width="2" mask="url(#path-1-outside-1_10438_3539)"/>
<path d="M549.454 54H542.578V52.56L558.022 2.15996H568.678L584.122 52.56V54H577.246L572.458 38.016H554.242L549.454 54ZM562.846 9.28795L556.114 31.824H570.586L563.854 9.28795C563.782 9.07196 563.638 8.99996 563.35 8.99996C563.062 8.99996 562.918 9.07196 562.846 9.28795Z" stroke="black" stroke-width="2" mask="url(#path-1-outside-1_10438_3539)"/>
<path d="M582.006 2.15996H588.882L602.274 46.872C602.346 47.088 602.49 47.16 602.778 47.16C603.066 47.16 603.21 47.088 603.282 46.872L616.674 2.15996H623.55V3.59995L608.106 54H597.45L582.006 3.59995V2.15996Z" stroke="black" stroke-width="2" mask="url(#path-1-outside-1_10438_3539)"/>
<path d="M663.785 54H630.593V2.15996H663.425V8.35196H637.505V23.904H660.905V30.096H637.505V47.808H663.785V54Z" stroke="black" stroke-width="2" mask="url(#path-1-outside-1_10438_3539)"/>
</svg>
